<svg width="210" height="201" viewBox="0 0 210 201" fill="none" xmlns="http://www.w3.org/2000/svg">
<g clip-path="url(#clip0)">
<mask id="path-2-inside-1" fill="white">
<path   fill-rule="evenodd" clip-rule="evenodd" d="M103.397 201C148.406 201 186.483 171.321 199.126 130.466H177.884C166.094 160.052 137.187 180.962 103.397 180.962C69.6063 180.962 40.6994 160.052 28.9095 130.466H7.66791C20.3105 171.321 58.3878 201 103.397 201ZM6.7345 74.3588C18.337 31.8593 57.2186 0.618347 103.397 0.618347C149.575 0.618347 188.457 31.8593 200.059 74.3588H179.083C168.155 43.0882 138.396 20.6565 103.397 20.6565C68.3981 20.6565 38.6386 43.0882 27.7111 74.3588H6.7345Z"/>
</mask>
<path class="mt-2--fill" fill-rule="evenodd" clip-rule="evenodd" d="M103.397 201C148.406 201 186.483 171.321 199.126 130.466H177.884C166.094 160.052 137.187 180.962 103.397 180.962C69.6063 180.962 40.6994 160.052 28.9095 130.466H7.66791C20.3105 171.321 58.3878 201 103.397 201ZM6.7345 74.3588C18.337 31.8593 57.2186 0.618347 103.397 0.618347C149.575 0.618347 188.457 31.8593 200.059 74.3588H179.083C168.155 43.0882 138.396 20.6565 103.397 20.6565C68.3981 20.6565 38.6386 43.0882 27.7111 74.3588H6.7345Z" fill="#F0D8B2"/>
<path d="M199.126 130.466L199.892 130.703L200.213 129.664H199.126V130.466ZM177.884 130.466V129.664H177.341L177.14 130.169L177.884 130.466ZM28.9095 130.466L29.6541 130.169L29.4529 129.664H28.9095V130.466ZM7.66791 130.466V129.664H6.58085L6.90221 130.703L7.66791 130.466ZM6.7345 74.3588L5.96127 74.1477L5.68482 75.1603H6.7345V74.3588ZM200.059 74.3588V75.1603H201.109L200.833 74.1477L200.059 74.3588ZM179.083 74.3588L178.326 74.6232L178.514 75.1603H179.083V74.3588ZM27.7111 74.3588V75.1603H28.2801L28.4678 74.6232L27.7111 74.3588ZM198.36 130.229C185.819 170.758 148.045 200.199 103.397 200.199V201.802C148.767 201.802 187.148 171.884 199.892 130.703L198.36 130.229ZM177.884 131.267H199.126V129.664H177.884V131.267ZM103.397 181.763C137.527 181.763 166.722 160.643 178.629 130.762L177.14 130.169C165.467 159.461 136.848 180.16 103.397 180.16V181.763ZM28.1649 130.762C40.0721 160.643 69.2671 181.763 103.397 181.763V180.16C69.9454 180.16 41.3267 159.461 29.6541 130.169L28.1649 130.762ZM28.9095 129.664H7.66791V131.267H28.9095V129.664ZM103.397 200.199C58.749 200.199 20.9753 170.758 8.43361 130.229L6.90221 130.703C19.6457 171.884 58.0265 201.802 103.397 201.802V200.199ZM7.50773 74.5699C19.0175 32.4101 57.5892 1.41987 103.397 1.41987V-0.18318C56.848 -0.18318 17.6565 31.3086 5.96127 74.1477L7.50773 74.5699ZM103.397 1.41987C149.205 1.41987 187.776 32.4101 199.286 74.5699L200.833 74.1477C189.137 31.3085 149.946 -0.18318 103.397 -0.18318V1.41987ZM200.059 73.5573H179.083V75.1603H200.059V73.5573ZM179.839 74.0944C168.803 42.5121 138.747 19.855 103.397 19.855V21.458C138.044 21.458 167.507 43.6643 178.326 74.6232L179.839 74.0944ZM103.397 19.855C68.0469 19.855 37.9908 42.5121 26.9545 74.0944L28.4678 74.6232C39.2863 43.6643 68.7494 21.458 103.397 21.458V19.855ZM6.7345 75.1603H27.7111V73.5573H6.7345V75.1603Z" fill="black" mask="url(#path-2-inside-1)"/>
<mask id="path-4-inside-2" fill="white">
<path d="M73.7404 68.7481C73.7404 68.3055 74.0992 67.9466 74.5419 67.9466H127.443C127.885 67.9466 128.244 68.3054 128.244 68.7481V133.672C128.244 134.114 127.885 134.473 127.443 134.473H74.5419C74.0992 134.473 73.7404 134.114 73.7404 133.672V68.7481Z"/>
</mask>
<path d="M73.7404 68.7481C73.7404 68.3055 74.0992 67.9466 74.5419 67.9466H127.443C127.885 67.9466 128.244 68.3054 128.244 68.7481V133.672C128.244 134.114 127.885 134.473 127.443 134.473H74.5419C74.0992 134.473 73.7404 134.114 73.7404 133.672V68.7481Z" fill="#178CA1"/>
<path d="M74.5419 68.7481H127.443V67.1451H74.5419V68.7481ZM127.443 68.7481V133.672H129.046V68.7481H127.443ZM127.443 133.672H74.5419V135.275H127.443V133.672ZM74.5419 133.672V68.7481H72.9388V133.672H74.5419ZM74.5419 133.672L74.5419 133.672H72.9388C72.9388 134.557 73.6565 135.275 74.5419 135.275V133.672ZM127.443 133.672L127.443 133.672V135.275C128.328 135.275 129.046 134.557 129.046 133.672H127.443ZM127.443 68.7481L127.443 68.7481H129.046C129.046 67.8628 128.328 67.1451 127.443 67.1451V68.7481ZM74.5419 67.1451C73.6565 67.1451 72.9388 67.8628 72.9388 68.7481H74.5419L74.5419 68.7481V67.1451Z" fill="black" mask="url(#path-4-inside-2)"/>
<rect x="78.9503" y="73.958" width="41.6794" height="5.61069" fill="#116979" stroke="black" stroke-width="0.801527"/>
<rect x="78.9503" y="82.7748" width="32.0611" height="3.20611" fill="#116979" stroke="black" stroke-width="0.801527"/>
<rect x="78.7499" y="113.834" width="45.2863" height="0.400763" fill="#116979" stroke="black" stroke-width="0.400763"/>
<rect x="78.7499" y="97.0019" width="45.2863" height="0.400763" fill="#116979" stroke="black" stroke-width="0.400763"/>
<rect x="78.7499" y="116.239" width="45.2863" height="0.400763" fill="#116979" stroke="black" stroke-width="0.400763"/>
<rect x="78.7499" y="99.4065" width="45.2863" height="0.400763" fill="#116979" stroke="black" stroke-width="0.400763"/>
<rect x="78.7499" y="118.643" width="45.2863" height="0.400763" fill="#116979" stroke="black" stroke-width="0.400763"/>
<rect x="78.7499" y="101.811" width="45.2863" height="0.400763" fill="#116979" stroke="black" stroke-width="0.400763"/>
<rect x="78.7499" y="121.048" width="45.2863" height="0.400763" fill="#116979" stroke="black" stroke-width="0.400763"/>
<rect x="78.7499" y="104.216" width="45.2863" height="0.400763" fill="#116979" stroke="black" stroke-width="0.400763"/>
<rect x="78.7499" y="104.216" width="45.2863" height="0.400763" fill="#116979" stroke="black" stroke-width="0.400763"/>
<mask id="path-17-inside-3" fill="white">
<path d="M90.5725 80.771C90.5725 80.3283 90.9314 79.9695 91.374 79.9695H144.275C144.717 79.9695 145.076 80.3283 145.076 80.771V145.695C145.076 146.137 144.717 146.496 144.275 146.496H91.374C90.9314 146.496 90.5725 146.137 90.5725 145.695V80.771Z"/>
</mask>
<path d="M90.5725 80.771C90.5725 80.3283 90.9314 79.9695 91.374 79.9695H144.275C144.717 79.9695 145.076 80.3283 145.076 80.771V145.695C145.076 146.137 144.717 146.496 144.275 146.496H91.374C90.9314 146.496 90.5725 146.137 90.5725 145.695V80.771Z" fill="#178CA1"/>
<path d="M91.374 80.771H144.275V79.168H91.374V80.771ZM144.275 80.771V145.695H145.878V80.771H144.275ZM144.275 145.695H91.374V147.298H144.275V145.695ZM91.374 145.695V80.771H89.771V145.695H91.374ZM91.374 145.695L91.374 145.695H89.771C89.771 146.58 90.4887 147.298 91.374 147.298V145.695ZM144.275 145.695L144.275 145.695V147.298C145.16 147.298 145.878 146.58 145.878 145.695H144.275ZM144.275 80.771L144.275 80.771H145.878C145.878 79.8857 145.16 79.168 144.275 79.168V80.771ZM91.374 79.168C90.4887 79.168 89.771 79.8857 89.771 80.771H91.374L91.374 80.771V79.168Z" fill="black" mask="url(#path-17-inside-3)"/>
<rect x="95.7825" y="85.9809" width="41.6794" height="5.61069" fill="#116979" stroke="black" stroke-width="0.801527"/>
<rect x="95.7825" y="94.7977" width="32.0611" height="3.20611" fill="#116979" stroke="black" stroke-width="0.801527"/>
<rect x="95.5821" y="125.857" width="45.2863" height="0.400763" fill="#116979" stroke="black" stroke-width="0.400763"/>
<rect x="95.5821" y="109.025" width="45.2863" height="0.400763" fill="#116979" stroke="black" stroke-width="0.400763"/>
<rect x="95.5821" y="128.261" width="45.2863" height="0.400763" fill="#116979" stroke="black" stroke-width="0.400763"/>
<rect x="95.5821" y="111.429" width="45.2863" height="0.400763" fill="#116979" stroke="black" stroke-width="0.400763"/>
<rect x="95.5821" y="130.666" width="45.2863" height="0.400763" fill="#116979" stroke="black" stroke-width="0.400763"/>
<rect x="95.5821" y="113.834" width="45.2863" height="0.400763" fill="#116979" stroke="black" stroke-width="0.400763"/>
<rect x="95.5821" y="133.071" width="45.2863" height="0.400763" fill="#116979" stroke="black" stroke-width="0.400763"/>
<rect x="95.5821" y="116.239" width="45.2863" height="0.400763" fill="#116979" stroke="black" stroke-width="0.400763"/>
<rect x="95.5821" y="116.239" width="45.2863" height="0.400763" fill="#116979" stroke="black" stroke-width="0.400763"/>
<path class="mt-2--fill" d="M193.716 114.845L208.891 71.1399C209.434 69.5775 208.274 67.9466 206.62 67.9466H173.51C171.799 67.9466 170.636 69.6818 171.285 71.264L189.22 114.969C190.06 117.018 192.989 116.937 193.716 114.845Z" fill="#F0D8B2" stroke="black" stroke-width="0.801527"/>
<path class="mt-2--fill" d="M16.2843 93.1853L1.10887 136.891C0.56638 138.453 1.72654 140.084 3.38042 140.084H36.4905C38.2008 140.084 39.3644 138.349 38.7151 136.767L20.7804 93.0612C19.9397 91.0123 17.0108 91.0932 16.2843 93.1853Z" fill="#F0D8B2" stroke="black" stroke-width="0.801527"/>
</g>
<defs>
<clipPath id="clip0">
<rect y="0.618347" width="210" height="200.382" fill="white"/>
</clipPath>
</defs>
</svg>
