<svg width="1440" height="800" fill="none" xmlns="http://www.w3.org/2000/svg"><mask id="a" maskUnits="userSpaceOnUse" x="0" y="0" width="1440" height="800"><path fill="#36C6E0" stroke="#000" d="M.5.5h1439v799H.5z"/></mask><g mask="url(#a)"><path d="M293 927s121.071-238.446 170.71-271.992c22.398-4.533 44.446 35.602 75.67 41.706 103.515-64.372 128.94-210.341 205.82-257.486 92.62 0 124.703-35.359 124.703-35.359S914.7 235.234 983.105 155.45c45.405 24.479 45.905-22.391 55.695 0 24.36 55.757 50.24 95.197 50.24 95.197s48.86 8.335 64.17-22.666c65.38-132.369 72.04-91.57 155.58-174.981 70.22 32.639 35.11 102.45 92.01 144.156 32.63 23.912 13.32 99.73 90.2 99.73 59.32 45.332 65.23 118.445 98.67 199.46 42.46 102.882 84.03 58.752 129.55 158.662 42.66 93.652 96.25 248.419 96.25 248.419L611.417 922.07 293 927z" fill="#F5E5CC"/><path d="M869.903 403.869S837.82 439.228 745.2 439.228c-76.88 47.145-102.305 193.114-205.821 257.486-31.223-6.104-53.271-46.239-75.669-41.706C414.071 688.554 293 927 293 927l318.417-4.93m258.486-518.201S914.7 235.234 983.105 155.45c45.405 24.479 45.905-22.391 55.695 0 24.36 55.757 50.24 95.197 50.24 95.197s48.86 8.335 64.17-22.666c65.38-132.369 72.04-91.57 155.58-174.981M869.903 403.869L786.97 545.305v88.851l-138.627 105.17M1308.79 53c70.22 32.639 35.11 102.45 92.01 144.156 32.63 23.913 13.32 99.73 90.2 99.73 59.32 45.332 65.23 118.445 98.67 199.46M1308.79 53l-59.33 144.156v99.73m340.21 199.46c42.46 102.882 84.03 58.752 129.55 158.662 42.66 93.652 96.25 248.419 96.25 248.419L611.417 922.07m978.253-425.724L1400.8 605.143V716.66l-56.9 22.666m-94.44-442.44l-78.7 45.332-76.88 81.597-21.79 121.49m177.37-248.419l33.3 106.983m-210.67 141.436L887.459 655.008l-46.007 136.903L611.417 922.07m460.673-376.765l56.91 88.851-10.9 68.904" stroke="#7D6D54"/><path d="M539.38 696.714c103.515-64.372 128.94-210.341 205.82-257.486 92.62 0 124.703-35.359 124.703-35.359S914.7 235.234 983.105 155.45c45.405 24.479 45.905-22.391 55.695 0 24.36 55.757 50.24 95.197 50.24 95.197s30.53 5.209 50.89-7.925l13.28-14.741c65.38-132.369 72.04-91.57 155.58-174.981 70.22 32.639 35.11 102.45 92.01 144.156 32.63 23.913 13.32 99.73 90.2 99.73 59.32 45.332 65.23 118.445 98.67 199.46 42.46 102.882 84.03 58.752 129.55 158.662L1695 902.521l-105.33-406.175L1400.8 716.66V605.143l188.87-108.797c-33.44-81.015-39.35-154.128-98.67-199.46-76.88 0-57.57-75.817-90.2-99.73v121.489l61.75 69.811L1491 516.293l-65.38-45.332-24.82-152.316V197.156C1343.9 155.45 1379.01 85.639 1308.79 53l-26.03 350.869-33.3-106.983-78.7 45.332 9.69 262.925-62.35 97.917 10.9-68.904-56.91-88.851-230.638 246.606 46.007-136.903 184.631-109.703 21.79-121.49 76.88-81.597 78.7-45.332v-99.73L1308.79 53c-83.54 83.411-90.2 42.612-155.58 174.981-3.21 6.494-7.89 11.261-13.28 14.741l-89.63 99.496-11.5 111.516-65.381 42.612 55.091-72.531v-105.17l60.53-67.998s-25.88-39.44-50.24-95.197L869.903 403.869 786.97 634.156v-88.851l82.933-141.436S837.82 439.228 745.2 439.228l-23.003 77.065-95.646 117.863-15.134 68.904-127.125 134.183 55.088-140.529z" fill="#ECD0A1"/><path d="M463.71 655.008c22.398-4.533 44.446 35.602 75.67 41.706m0 0c103.515-64.372 128.94-210.341 205.82-257.486M539.38 696.714l-55.088 140.529L611.417 703.06l15.134-68.904 95.646-117.863 23.003-77.065m0 0c92.62 0 124.703-35.359 124.703-35.359m0 0S914.7 235.234 983.105 155.45c45.405 24.479 45.905-22.391 55.695 0M869.903 403.869L786.97 545.305v88.851m82.933-230.287L786.97 634.156m82.933-230.287L1038.8 155.45m50.24 95.197s48.86 8.335 64.17-22.666m-64.17 22.666s-25.88-39.44-50.24-95.197m50.24 95.197l-60.53 67.998v105.17l-55.091 72.531 65.381-42.612 11.5-111.516 102.91-114.237m0 0c65.38-132.369 72.04-91.57 155.58-174.981m0 0c70.22 32.639 35.11 102.45 92.01 144.156M1308.79 53l-59.33 144.156v99.73M1308.79 53l-26.03 350.869-33.3-106.983m151.34-99.73c32.63 23.913 13.32 99.73 90.2 99.73 59.32 45.332 65.23 118.445 98.67 199.46m-188.87-299.19v121.489m188.87 177.701c42.46 102.882 84.03 58.752 129.55 158.662L1695 902.521l-105.33-406.175zm0 0L1400.8 605.143V716.66m188.87-220.314L1400.8 716.66m-151.34-419.774l-78.7 45.332m0 0l-76.88 81.597-21.79 121.49m98.67-203.087l9.69 262.925-62.35 97.917m-46.01-157.755L887.459 655.008l-46.007 136.903m230.638-246.606l56.91 88.851-10.9 68.904m-46.01-157.755L841.452 791.911m0 0L611.417 922.07M786.97 634.156l-138.627 105.17M1400.8 716.66l-56.9 22.666m-225.8-36.266l-46.01 88.851 21.79 45.332m306.92-518.598l61.75 69.811L1491 516.293l-65.38-45.332-24.82-152.316z" stroke="#7D6D54"/><path d="M1827 1060.45s-147.49-51.53-215.53-74.534c-30.71-3.109-85.43-18.12-122.21-83.413-141.9-44.15-176.75-144.266-282.14-176.601-126.96 0-170.94-24.252-170.94-24.252s-24.06-21.032-98.915-105.09c-137.994-42.986-119.191-80.65-132.605-65.293-33.402 38.242-68.875 65.293-68.875 65.293s-55.32-5.486-87.961-15.546C536.424 546.681 549.076 518.209 434.56 461c-163.61 0-89.55 70.267-167.553 98.872-44.725 16.401 23.164 68.402-82.223 68.402-81.322 31.091-89.426 81.238-135.26 136.803-58.206 70.563-115.192 40.296-177.582 108.822C-186.54 938.132-260 1044.28-260 1044.28l1650.51 12.79 436.49 3.38z" fill="#F1DAB7"/><path d="M1036.18 701.65s43.98 24.252 170.94 24.252c105.39 32.335 140.24 132.451 282.14 176.601 36.78 65.293 91.5 80.304 122.21 83.413 68.04 23.004 215.53 74.534 215.53 74.534l-436.49-3.38m-354.33-355.42s-24.06-21.032-98.915-105.09c-137.994-42.986-119.191-80.65-132.605-65.293-33.402 38.242-68.875 65.293-68.875 65.293s-55.32-5.486-87.961-15.546C536.424 546.681 549.076 518.209 434.56 461m601.62 240.65l113.69 97.007v60.939l190.03 72.133M434.56 461c-163.61 0-89.55 70.267-167.553 98.872-44.725 16.401 23.164 68.402-82.223 68.402-81.322 31.091-89.426 81.238-135.26 136.803M434.56 461l81.323 98.872v68.402M49.523 765.077C-8.683 835.64-65.668 805.373-128.059 873.899-186.54 938.132-260 1044.28-260 1044.28l1650.51 12.79M49.523 765.077l86.061 166.652 172.843-15.546 78.004 15.546m129.452-303.455l107.876 31.091 105.388 55.966 29.873 83.326M515.883 628.274l-45.641 73.376m288.778 97.007l253.1 75.242 63.06 93.897 315.33 89.274M759.02 798.657l-78.003 60.939 14.937 47.26" stroke="#7D6D54" stroke-width="2"/><path d="M1489.26 902.503c-141.9-44.15-176.75-144.266-282.14-176.601-126.96 0-170.94-24.252-170.94-24.252L938.5 596l-129.302-68.315a1.474 1.474 0 00-.463-.245c-33.402 38.242-72.95 69.12-72.95 69.12s-41.854 3.573-69.757-5.435l-18.204-10.111C539.053 543.726 549.076 518.209 434.56 461c-160.155 0-93.493 70.267-171.496 98.872-44.725 16.401 27.107 68.402-78.28 68.402-81.322 31.091-89.426 81.238-135.26 136.803C-8.684 835.64-65.669 805.373-128.06 873.899l33.193 169.761 144.39-278.583 88.688 166.652 170.215-15.546L49.523 765.077c45.835-55.565 53.939-105.712 135.261-136.803 105.387 0 33.555-52.001 78.28-68.402l45.363 83.326-84.641 47.881-39.002 87.679 89.621-31.092 34.022-104.468-45.363-83.326C341.067 531.267 274.405 461 434.56 461l35.682 240.65 45.641-73.376 107.876 31.091-13.277 180.333 85.472 67.158-14.937-47.26 78.003-60.94 316.16 169.14-63.06-93.897-253.1-75.243-29.873-83.325-105.388-55.966-107.876-31.091v-68.402L434.56 461c114.516 57.209 104.493 82.726 213.264 120.014 4.397 4.454 10.81 7.724 18.204 10.111l122.866 68.24 15.766 76.486 89.621 29.226-75.514-49.746v-72.133l-82.982-46.638s39.548-30.878 72.95-69.12l.463.245c7.87 6.113-23.752 98.518 37.385 82.025 93.77 54.721 189.597 91.94 189.597 91.94l113.69 157.946v-60.94l-113.69-97.006s43.98 24.252 170.94 24.252l31.54 52.856 131.11 80.838 20.74 47.26 174.27 92.031-75.52-96.384z" fill="#E8C68C"/><path d="M1207.12 725.902c105.39 32.335 140.24 132.451 282.14 176.601l75.52 96.384-174.27-92.031-20.74-47.26-131.11-80.838-31.54-52.856zm0 0c-126.96 0-170.94-24.252-170.94-24.252m0 0s-95.827-37.219-189.597-91.94c-62.237 16.789-28.348-79.27-37.848-82.27m227.445 174.21l113.69 97.006v60.94M1036.18 701.65l113.69 157.946M1036.18 701.65L938.5 596l-129.765-68.56m-72.95 69.12s-66.972 5.717-87.961-15.546m87.961 15.546s39.548-30.878 72.95-69.12m-72.95 69.12l82.982 46.638v72.133l75.514 49.746-89.621-29.226-15.766-76.486-141.07-78.351m0 0C539.053 543.726 549.075 518.209 434.56 461m0 0c-160.155 0-93.493 70.267-171.496 98.872M434.56 461l81.323 98.872v68.402M434.56 461l35.682 240.65 45.641-73.376m-252.819-68.402c-44.725 16.401 27.107 68.402-78.28 68.402-81.322 31.091-89.426 81.238-135.26 136.803m213.54-205.205l45.363 83.326M49.523 765.077C-8.683 835.64-65.668 805.373-128.059 873.899l33.193 169.761 144.39-278.583zm0 0l88.689 166.652 170.215-15.546M49.523 765.077l258.904 151.106m207.456-287.909l107.876 31.091m0 0l105.388 55.966 29.873 83.325M623.759 659.365l-13.277 180.333 85.472 67.158m63.066-108.2l253.1 75.243 63.06 93.897m-316.16-169.14l-78.003 60.94 14.937 47.26m63.066-108.2l316.16 169.14m0 0l315.33 89.274m-240.64-197.474l190.02 72.133M308.427 916.183l78.004 15.546m309.523-24.873l63.066 60.94-29.873 31.091m-420.72-355.689l-84.641 47.881-39.002 87.679 89.621-31.092 34.022-104.468z" stroke="#7D6D54" stroke-width="2"/><g filter="url(#filter0_d)"><path d="M62.576 747.303C-51.556 762.634-270 904-270 904h1936l-183.94-115.544c-208.5-98.869-204.37-93.914-579.065-166.195-112.097 0-78.034-39.042-185.796-13.717-189.048 44.427-211.189 119.276-475.02 138.759-69.877 5.16-57.597 21.631-179.603 0z" fill="#116979"/><path d="M902.996 622.261c-112.098 0-78.035-39.042-185.797-13.717-189.048 44.427-211.189 119.276-475.02 138.759-69.877 5.16-57.597 21.631-179.603 0C-51.556 762.634-270 904-270 904h1936l-183.94-115.544c-208.5-98.869-204.37-93.914-579.064-166.195zm0 0s-250.826 7.387-331.338 125.042c-80.511 117.655-509.082 52.274-509.082 52.274" stroke="#553B11" stroke-width="2"/></g></g><defs><filter id="filter0_d" x="-277.386" y="599" width="1950.86" height="314" filterUnits="userSpaceOnUse" color-interpolation-filters="sRGB"><feFlood flood-opacity="0" result="BackgroundImageFix"/><feColorMatrix in="SourceAlpha" values="0 0 0 0 0 0 0 0 0 0 0 0 0 0 0 0 0 0 127 0"/><feOffset dy="4"/><feGaussianBlur stdDeviation="2"/><feColorMatrix values="0 0 0 0 0 0 0 0 0 0 0 0 0 0 0 0 0 0 0.25 0"/><feBlend in2="BackgroundImageFix" result="effect1_dropShadow"/><feBlend in="SourceGraphic" in2="effect1_dropShadow" result="shape"/></filter></defs></svg>