<svg width="296" height="216" viewBox="0 0 296 216" fill="none" xmlns="http://www.w3.org/2000/svg">
<g clip-path="url(#clip0)">
<path d="M1.00297 95.5827C0.720694 73.0173 20.5899 52.7446 58.4569 48.615C98.3348 44.2661 115.948 66.5015 142.188 84.6236C167.301 101.967 201.172 114.881 188.062 136.288C171.895 162.686 109.248 155.132 66.0283 143.072C29.3891 132.849 1.30037 119.358 1.00297 95.5827Z" fill="#178CA1" stroke="black"/>
<path d="M193.411 31.6327C196.214 55.0747 270.308 18.5018 256.905 77.9896C251.379 102.514 212.327 107.172 175.388 117.851C140.037 128.07 144.395 167.083 59.2314 140.683C4.10054 123.593 121.045 98.2615 121.045 69.0507C121.045 45.9039 187.584 -17.0999 193.411 31.6327Z" fill="#178CA1" stroke="black"/>
<path  class="mt-2--fill__shadow" fill-rule="evenodd" clip-rule="evenodd" d="M42.7913 136.182C31.6052 127.62 51.4901 117.424 73.748 106.011C95.277 94.9717 119.026 82.7941 119.026 69.8562C119.026 69.0873 119.102 68.2745 119.249 67.4233C121.623 69.1428 123.993 70.9074 126.387 72.6901C131.312 76.3574 136.339 80.1008 141.715 83.6835C147.141 87.2995 152.961 90.7231 158.652 94.0713C170.667 101.139 182.111 107.871 188.068 115.366C183.852 116.43 179.613 117.532 175.4 118.707C164.16 121.843 156.79 127.686 149.429 133.522C138.362 142.297 127.317 151.054 103.173 150.564C89.1069 148.538 75.1335 145.539 62.708 142.193C55.7289 140.314 49.0487 138.325 42.7913 136.182Z" fill="#F0D8B2"/>
<path d="M42.7913 136.182L42.4874 136.579L42.5521 136.628L42.6293 136.655L42.7913 136.182ZM73.748 106.011L73.9762 106.456L73.9762 106.456L73.748 106.011ZM119.026 69.8562L119.526 69.8562V69.8562H119.026ZM119.249 67.4233L119.543 67.0183L118.893 66.548L118.757 67.3381L119.249 67.4233ZM126.387 72.6901L126.686 72.2891L126.686 72.2891L126.387 72.6901ZM141.715 83.6835L141.438 84.0996L141.438 84.0996L141.715 83.6835ZM158.652 94.0713L158.399 94.5023L158.399 94.5023L158.652 94.0713ZM188.068 115.366L188.191 115.85L188.942 115.661L188.46 115.055L188.068 115.366ZM175.4 118.707L175.266 118.225L175.266 118.225L175.4 118.707ZM149.429 133.522L149.118 133.13L149.118 133.13L149.429 133.522ZM103.173 150.564L103.102 151.059L103.132 151.063L103.163 151.064L103.173 150.564ZM62.708 142.193L62.838 141.711L62.838 141.711L62.708 142.193ZM43.0952 135.785C41.7414 134.748 40.8955 133.716 40.456 132.697C40.0206 131.688 39.9698 130.66 40.2615 129.592C40.8555 127.419 42.8744 125.07 46.0391 122.557C52.3461 117.55 62.8274 112.173 73.9762 106.456L73.5199 105.566C62.4108 111.262 51.8207 116.69 45.4173 121.774C42.2267 124.307 39.9807 126.826 39.2968 129.329C38.9495 130.6 39.0065 131.862 39.5378 133.093C40.065 134.316 41.0446 135.474 42.4874 136.579L43.0952 135.785ZM73.9762 106.456C84.7316 100.941 96.0849 95.1204 104.747 89.0551C109.079 86.022 112.762 82.9115 115.366 79.7277C117.969 76.5448 119.526 73.2489 119.526 69.8562L118.526 69.8562C118.526 72.9324 117.114 76.0104 114.592 79.0946C112.07 82.1778 108.47 85.2276 104.174 88.236C95.5791 94.2538 84.2934 100.042 73.5199 105.566L73.9762 106.456ZM119.526 69.8562C119.526 69.1199 119.599 68.3359 119.742 67.5085L118.757 67.3381C118.605 68.2131 118.526 69.0547 118.526 69.8562H119.526ZM118.956 67.8282C121.327 69.5454 123.694 71.3081 126.088 73.0911L126.686 72.2891C124.292 70.5068 121.92 68.7401 119.543 67.0183L118.956 67.8282ZM126.088 73.0911C131.012 76.7573 136.049 80.5084 141.438 84.0996L141.992 83.2675C136.629 79.6931 131.612 75.9574 126.686 72.2891L126.088 73.0911ZM141.438 84.0996C146.877 87.7247 152.709 91.1554 158.399 94.5023L158.906 93.6404C153.212 90.2908 147.404 86.8743 141.992 83.2675L141.438 84.0996ZM158.399 94.5023C164.41 98.0384 170.259 101.479 175.349 104.971C180.442 108.464 184.745 111.988 187.677 115.677L188.46 115.055C185.435 111.249 181.036 107.659 175.915 104.146C170.79 100.631 164.91 97.1722 158.906 93.6404L158.399 94.5023ZM187.946 114.881C183.728 115.945 179.484 117.049 175.266 118.225L175.535 119.189C179.742 118.015 183.977 116.914 188.191 115.85L187.946 114.881ZM175.266 118.225C163.918 121.391 156.477 127.296 149.118 133.13L149.739 133.914C157.102 128.077 164.402 122.294 175.535 119.189L175.266 118.225ZM149.118 133.13C143.58 137.521 138.097 141.865 130.999 145.061C123.911 148.253 115.188 150.307 103.183 150.064L103.163 151.064C115.301 151.31 124.173 149.231 131.41 145.973C138.637 142.719 144.21 138.298 149.739 133.914L149.118 133.13ZM103.244 150.069C89.1998 148.046 75.2461 145.051 62.838 141.711L62.578 142.676C75.0209 146.026 89.0139 149.03 103.102 151.059L103.244 150.069ZM62.838 141.711C55.8667 139.834 49.1977 137.847 42.9533 135.709L42.6293 136.655C48.8998 138.802 55.591 140.795 62.578 142.676L62.838 141.711Z" fill="black"/>
<path d="M224.59 116.455C226.859 135.432 286.839 105.826 275.989 153.982C271.516 173.835 227.579 157.946 197.676 166.591C169.059 174.864 169.804 211.657 147.452 198.051C64.7722 147.723 103.778 129.518 103.778 105.871C103.778 87.1335 219.873 77.0055 224.59 116.455Z" fill="#178CA1" stroke="black"/>
<path class="mt-2--fill" fill-rule="evenodd" clip-rule="evenodd" d="M151.266 89.4233C126.031 91.0738 104.252 97.6215 104.252 105.779C104.252 111.394 102.075 116.706 99.8217 122.205C96.4738 130.375 92.9571 138.956 96.1585 149.554C99.0948 150.078 102.049 150.563 105.008 151.003C128.69 151.5 139.523 142.63 150.379 133.743C157.599 127.833 164.828 121.914 175.853 118.738C179.915 117.568 184.002 116.47 188.068 115.409C182.052 108.183 171.258 101.627 159.949 94.7571C157.065 93.005 154.146 91.2325 151.266 89.4233Z" fill="#F9F0E1"/>
<path d="M104.252 105.779L103.752 105.779L104.252 105.779ZM151.266 89.4233L151.531 88.9998L151.394 88.9138L151.233 88.9243L151.266 89.4233ZM99.8217 122.205L99.3591 122.016L99.3591 122.016L99.8217 122.205ZM96.1585 149.554L95.6798 149.698L95.7685 149.992L96.0706 150.046L96.1585 149.554ZM105.008 151.003L104.935 151.498L104.966 151.503L104.998 151.503L105.008 151.003ZM150.379 133.743L150.062 133.357L150.062 133.357L150.379 133.743ZM175.853 118.738L175.992 119.219L175.853 118.738ZM188.068 115.409L188.195 115.893L188.956 115.694L188.453 115.089L188.068 115.409ZM159.949 94.7571L160.209 94.3298L160.209 94.3298L159.949 94.7571ZM104.752 105.779C104.752 103.978 105.956 102.169 108.345 100.417C110.722 98.674 114.178 97.0591 118.454 95.6354C127 92.7901 138.708 90.7457 151.298 89.9222L151.233 88.9243C138.588 89.7514 126.79 91.8061 118.138 94.6866C113.815 96.1258 110.249 97.7804 107.754 99.6107C105.271 101.432 103.752 103.501 103.752 105.779L104.752 105.779ZM100.284 122.395C102.53 116.915 104.752 111.51 104.752 105.779L103.752 105.779C103.752 111.278 101.621 116.497 99.3591 122.016L100.284 122.395ZM96.6371 149.409C93.493 139.001 96.9317 130.576 100.284 122.395L99.3591 122.016C96.016 130.173 92.4212 138.911 95.6798 149.698L96.6371 149.409ZM96.0706 150.046C99.0115 150.571 101.971 151.057 104.935 151.498L105.082 150.509C102.128 150.07 99.1781 149.585 96.2464 149.062L96.0706 150.046ZM104.998 151.503C116.908 151.753 125.613 149.647 132.714 146.345C139.805 143.049 145.273 138.57 150.695 134.13L150.062 133.357C144.63 137.804 139.253 142.203 132.293 145.439C125.343 148.67 116.79 150.75 105.019 150.503L104.998 151.503ZM150.695 134.13C157.917 128.218 165.076 122.363 175.992 119.219L175.715 118.258C164.58 121.465 157.28 127.448 150.062 133.357L150.695 134.13ZM175.992 119.219C180.048 118.05 184.131 116.953 188.195 115.893L187.942 114.925C183.874 115.986 179.782 117.086 175.715 118.258L175.992 119.219ZM188.453 115.089C182.37 107.784 171.489 101.182 160.209 94.3298L159.689 95.1844C171.027 102.071 181.733 108.582 187.684 115.729L188.453 115.089ZM160.209 94.3298C157.324 92.5773 154.409 90.8068 151.531 88.9998L151 89.8467C153.884 91.6582 156.805 93.4327 159.689 95.1844L160.209 94.3298Z" fill="black"/>
<mask id="path-9-inside-1" fill="white">
<path d="M119.114 101.298C119.37 100.808 120.017 100.495 120.559 100.599L148.636 105.957C149.179 106.061 149.411 106.541 149.156 107.031L138.505 127.424C138.249 127.913 137.602 128.226 137.06 128.123L108.983 122.764C108.44 122.661 108.208 122.18 108.463 121.69L119.114 101.298Z"/>
</mask>
<path class="mt-2--fill__shadow" d="M119.114 101.298C119.37 100.808 120.017 100.495 120.559 100.599L148.636 105.957C149.179 106.061 149.411 106.541 149.156 107.031L138.505 127.424C138.249 127.913 137.602 128.226 137.06 128.123L108.983 122.764C108.44 122.661 108.208 122.18 108.463 121.69L119.114 101.298Z" fill="#F5E5CC"/>
<path d="M120.096 101.485L148.173 106.843L149.099 105.071L121.022 99.7123L120.096 101.485ZM148.173 106.843L137.522 127.236L139.487 127.611L150.138 107.218L148.173 106.843ZM137.522 127.236L109.445 121.878L108.52 123.651L136.597 129.009L137.522 127.236ZM109.445 121.878L120.096 101.485L118.132 101.11L107.481 121.503L109.445 121.878ZM109.445 121.878L109.445 121.878L107.481 121.503C106.97 122.482 107.435 123.444 108.52 123.651L109.445 121.878ZM137.522 127.236L137.522 127.236L136.597 129.009C137.682 129.216 138.976 128.59 139.487 127.611L137.522 127.236ZM148.173 106.843L148.173 106.843L150.138 107.218C150.649 106.239 150.184 105.278 149.099 105.071L148.173 106.843ZM121.022 99.7123C119.937 99.5053 118.643 100.131 118.132 101.11L120.096 101.485L120.096 101.485L121.022 99.7123Z" fill="black" mask="url(#path-9-inside-1)"/>
<rect x="0.259662" y="0.536923" width="22.8373" height="1.41027" transform="matrix(0.982272 0.187461 -0.462948 0.886386 121.505 102.799)" fill="#553B11" stroke="black"/>
<rect x="0.19558" y="0.404416" width="17.687" height="0.75321" transform="matrix(0.982272 0.187461 -0.462948 0.886386 119.908 105.733)" fill="#553B11" stroke="black" stroke-width="0.75321"/>
<rect x="0.039116" y="0.0808833" width="25.4857" height="0.150642" transform="matrix(0.982272 0.187461 -0.462948 0.886386 114.316 116.141)" fill="#553B11" stroke="black" stroke-width="0.150642"/>
<rect x="0.039116" y="0.0808833" width="25.4857" height="0.150642" transform="matrix(0.982272 0.187461 -0.462948 0.886386 117.245 110.533)" fill="#553B11" stroke="black" stroke-width="0.150642"/>
<rect x="0.039116" y="0.0808833" width="25.4857" height="0.150642" transform="matrix(0.982272 0.187461 -0.462948 0.886386 113.897 116.942)" fill="#553B11" stroke="black" stroke-width="0.150642"/>
<rect x="0.039116" y="0.0808833" width="25.4857" height="0.150642" transform="matrix(0.982272 0.187461 -0.462948 0.886386 116.826 111.334)" fill="#553B11" stroke="black" stroke-width="0.150642"/>
<rect x="0.039116" y="0.0808833" width="25.4857" height="0.150642" transform="matrix(0.982272 0.187461 -0.462948 0.886386 113.479 117.743)" fill="#553B11" stroke="black" stroke-width="0.150642"/>
<rect x="0.039116" y="0.0808833" width="25.4857" height="0.150642" transform="matrix(0.982272 0.187461 -0.462948 0.886386 116.408 112.135)" fill="#553B11" stroke="black" stroke-width="0.150642"/>
<rect x="0.039116" y="0.0808833" width="25.4857" height="0.150642" transform="matrix(0.982272 0.187461 -0.462948 0.886386 113.06 118.545)" fill="#553B11" stroke="black" stroke-width="0.150642"/>
<rect x="0.039116" y="0.0808833" width="25.4857" height="0.150642" transform="matrix(0.982272 0.187461 -0.462948 0.886386 115.989 112.936)" fill="#553B11" stroke="black" stroke-width="0.150642"/>
<rect x="0.039116" y="0.0808833" width="25.4857" height="0.150642" transform="matrix(0.982272 0.187461 -0.462948 0.886386 115.989 112.936)" fill="#553B11" stroke="black" stroke-width="0.150642"/>
<mask id="path-22-inside-2" fill="white">
<path d="M135.768 102.361C136.202 102.02 136.96 101.932 137.461 102.165L160.609 112.939C161.11 113.172 161.164 113.638 160.729 113.979L138.843 131.161C138.409 131.502 137.651 131.589 137.15 131.356L114.002 120.582C113.501 120.349 113.448 119.884 113.882 119.543L135.768 102.361Z"/>
</mask>
<path class="mt-2--fill__shadow" d="M135.768 102.361C136.202 102.02 136.96 101.932 137.461 102.165L160.609 112.939C161.11 113.172 161.164 113.638 160.729 113.979L138.843 131.161C138.409 131.502 137.651 131.589 137.15 131.356L114.002 120.582C113.501 120.349 113.448 119.884 113.882 119.543L135.768 102.361Z" fill="#F5E5CC"/>
<path d="M136.675 102.783L159.823 113.557L161.396 112.322L138.248 101.548L136.675 102.783ZM159.823 113.557L137.937 130.739L139.75 131.583L161.636 114.401L159.823 113.557ZM137.937 130.739L114.789 119.965L113.216 121.2L136.364 131.974L137.937 130.739ZM114.789 119.965L136.675 102.783L134.861 101.939L112.975 119.121L114.789 119.965ZM114.789 119.965L114.789 119.965L112.975 119.121C112.107 119.803 112.214 120.734 113.216 121.2L114.789 119.965ZM137.937 130.739L137.937 130.739L136.364 131.974C137.365 132.44 138.881 132.265 139.75 131.583L137.937 130.739ZM159.823 113.557L159.823 113.557L161.636 114.401C162.505 113.719 162.397 112.788 161.396 112.322L159.823 113.557ZM138.248 101.548C137.246 101.082 135.73 101.257 134.861 101.939L136.675 102.783L136.675 102.783L138.248 101.548Z" fill="black" mask="url(#path-22-inside-2)"/>
<rect x="0.0600252" y="0.51974" width="20.4592" height="1.87467" transform="matrix(0.906611 0.421967 -0.786561 0.617513 137.193 104.495)" fill="#553B11" stroke="black"/>
<rect x="0.0539227" y="0.4669" width="15.7022" height="0.898335" transform="matrix(0.906611 0.421967 -0.786561 0.617513 134.042 106.918)" fill="#553B11" stroke="black" stroke-width="0.898335"/>
<rect x="0.0107845" y="0.09338" width="22.8991" height="0.179667" transform="matrix(0.906611 0.421967 -0.786561 0.617513 122.721 115.447)" fill="#553B11" stroke="black" stroke-width="0.179667"/>
<rect x="0.0107845" y="0.09338" width="22.8991" height="0.179667" transform="matrix(0.906611 0.421967 -0.786561 0.617513 128.656 110.788)" fill="#553B11" stroke="black" stroke-width="0.179667"/>
<rect x="0.0107845" y="0.09338" width="22.8991" height="0.179667" transform="matrix(0.906611 0.421967 -0.786561 0.617513 121.873 116.113)" fill="#553B11" stroke="black" stroke-width="0.179667"/>
<rect x="0.0107845" y="0.09338" width="22.8991" height="0.179667" transform="matrix(0.906611 0.421967 -0.786561 0.617513 127.808 111.453)" fill="#553B11" stroke="black" stroke-width="0.179667"/>
<rect x="0.0107845" y="0.09338" width="22.8991" height="0.179667" transform="matrix(0.906611 0.421967 -0.786561 0.617513 121.025 116.779)" fill="#553B11" stroke="black" stroke-width="0.179667"/>
<rect x="0.0107845" y="0.09338" width="22.8991" height="0.179667" transform="matrix(0.906611 0.421967 -0.786561 0.617513 126.961 112.119)" fill="#553B11" stroke="black" stroke-width="0.179667"/>
<rect x="0.0107845" y="0.09338" width="22.8991" height="0.179667" transform="matrix(0.906611 0.421967 -0.786561 0.617513 120.177 117.444)" fill="#553B11" stroke="black" stroke-width="0.179667"/>
<rect x="0.0107845" y="0.09338" width="22.8991" height="0.179667" transform="matrix(0.906611 0.421967 -0.786561 0.617513 126.113 112.785)" fill="#553B11" stroke="black" stroke-width="0.179667"/>
<rect x="0.0107845" y="0.09338" width="22.8991" height="0.179667" transform="matrix(0.906611 0.421967 -0.786561 0.617513 126.113 112.785)" fill="#553B11" stroke="black" stroke-width="0.179667"/>
</g>
<defs>
<clipPath id="clip0">
<rect y="0.970154" width="296" height="215" fill="white"/>
</clipPath>
</defs>
</svg>
