<svg width="1440" height="800" viewBox="0 0 1440 800" fill="none" xmlns="http://www.w3.org/2000/svg">
<mask id="mask0" mask-type="alpha" maskUnits="userSpaceOnUse" x="0" y="0" width="1440" height="800">
<rect x="0.5" y="0.5" width="1439" height="799" fill="#36C6E0" stroke="black"/>
</mask>
<g mask="url(#mask0)">
<path className="mt-1--fill" d="M293 927C293 927 414.071 688.554 463.71 655.008C486.108 650.475 508.156 690.61 539.38 696.714C642.895 632.342 668.32 486.373 745.2 439.228C837.82 439.228 869.903 403.869 869.903 403.869C869.903 403.869 914.7 235.234 983.105 155.45C1028.51 179.929 1029.01 133.059 1038.8 155.45C1063.16 211.207 1089.04 250.647 1089.04 250.647C1089.04 250.647 1137.9 258.982 1153.21 227.981C1218.59 95.612 1225.25 136.411 1308.79 53C1379.01 85.639 1343.9 155.45 1400.8 197.156C1433.43 221.068 1414.12 296.886 1491 296.886C1550.32 342.218 1556.23 415.331 1589.67 496.346C1632.13 599.228 1673.7 555.098 1719.22 655.008C1761.88 748.66 1815.47 903.427 1815.47 903.427L611.417 922.07L293 927Z" fill="#F5E5CC"/>
<path d="M869.903 403.869C869.903 403.869 837.82 439.228 745.2 439.228C668.32 486.373 642.895 632.342 539.379 696.714C508.156 690.61 486.108 650.475 463.71 655.008C414.071 688.554 293 927 293 927L611.417 922.07M869.903 403.869C869.903 403.869 914.7 235.234 983.105 155.45C1028.51 179.929 1029.01 133.059 1038.8 155.45C1063.16 211.207 1089.04 250.647 1089.04 250.647C1089.04 250.647 1137.9 258.982 1153.21 227.981C1218.59 95.612 1225.25 136.411 1308.79 53M869.903 403.869L786.97 545.305V634.156L648.343 739.326M1308.79 53C1379.01 85.639 1343.9 155.45 1400.8 197.156C1433.43 221.069 1414.12 296.886 1491 296.886C1550.32 342.218 1556.23 415.331 1589.67 496.346M1308.79 53L1249.46 197.156V296.886M1589.67 496.346C1632.13 599.228 1673.7 555.098 1719.22 655.008C1761.88 748.66 1815.47 903.427 1815.47 903.427L611.417 922.07M1589.67 496.346L1400.8 605.143V716.66L1343.9 739.326M1249.46 296.886L1170.76 342.218L1093.88 423.815L1072.09 545.305M1249.46 296.886L1282.76 403.869M1072.09 545.305L887.459 655.008L841.452 791.911L611.417 922.07M1072.09 545.305L1129 634.156L1118.1 703.06" stroke="#7D6D54"/>
<path className="mt-1--fill__shadow" d="M539.38 696.714C642.895 632.342 668.32 486.373 745.2 439.228C837.82 439.228 869.903 403.869 869.903 403.869C869.903 403.869 914.7 235.234 983.105 155.45C1028.51 179.929 1029.01 133.059 1038.8 155.45C1063.16 211.207 1089.04 250.647 1089.04 250.647C1089.04 250.647 1119.57 255.856 1139.93 242.722L1153.21 227.981C1218.59 95.612 1225.25 136.411 1308.79 53C1379.01 85.639 1343.9 155.45 1400.8 197.156C1433.43 221.069 1414.12 296.886 1491 296.886C1550.32 342.218 1556.23 415.331 1589.67 496.346C1632.13 599.228 1673.7 555.098 1719.22 655.008L1695 902.521L1589.67 496.346L1400.8 716.66V605.143L1589.67 496.346C1556.23 415.331 1550.32 342.218 1491 296.886C1414.12 296.886 1433.43 221.069 1400.8 197.156V318.645L1462.55 388.456L1491 516.293L1425.62 470.961L1400.8 318.645V197.156C1343.9 155.45 1379.01 85.639 1308.79 53L1282.76 403.869L1249.46 296.886L1170.76 342.218L1180.45 605.143L1118.1 703.06L1129 634.156L1072.09 545.305L841.452 791.911L887.459 655.008L1072.09 545.305L1093.88 423.815L1170.76 342.218L1249.46 296.886V197.156L1308.79 53C1225.25 136.411 1218.59 95.612 1153.21 227.981C1150 234.475 1145.32 239.242 1139.93 242.722L1050.3 342.218L1038.8 453.734L973.419 496.346L1028.51 423.815V318.645L1089.04 250.647C1089.04 250.647 1063.16 211.207 1038.8 155.45L869.903 403.869L786.97 634.156V545.305L869.903 403.869C869.903 403.869 837.82 439.228 745.2 439.228L722.197 516.293L626.551 634.156L611.417 703.06L484.292 837.243L539.38 696.714Z" fill="#ECD0A1"/>
<path d="M463.71 655.008C486.108 650.475 508.156 690.61 539.38 696.714M539.38 696.714C642.895 632.342 668.32 486.373 745.2 439.228M539.38 696.714L484.292 837.243L611.417 703.06L626.551 634.156L722.197 516.293L745.2 439.228M745.2 439.228C837.82 439.228 869.903 403.869 869.903 403.869M869.903 403.869C869.903 403.869 914.7 235.234 983.105 155.45C1028.51 179.929 1029.01 133.059 1038.8 155.45M869.903 403.869L786.97 545.305V634.156M869.903 403.869L786.97 634.156M869.903 403.869L1038.8 155.45M1089.04 250.647C1089.04 250.647 1137.9 258.982 1153.21 227.981M1089.04 250.647C1089.04 250.647 1063.16 211.207 1038.8 155.45M1089.04 250.647L1028.51 318.645V423.815L973.419 496.346L1038.8 453.734L1050.3 342.218L1153.21 227.981M1153.21 227.981C1218.59 95.612 1225.25 136.411 1308.79 53M1308.79 53C1379.01 85.639 1343.9 155.45 1400.8 197.156M1308.79 53L1249.46 197.156V296.886M1308.79 53L1282.76 403.869L1249.46 296.886M1400.8 197.156C1433.43 221.069 1414.12 296.886 1491 296.886C1550.32 342.218 1556.23 415.331 1589.67 496.346M1400.8 197.156V318.645M1589.67 496.346C1632.13 599.228 1673.7 555.098 1719.22 655.008L1695 902.521L1589.67 496.346ZM1589.67 496.346L1400.8 605.143V716.66M1589.67 496.346L1400.8 716.66M1249.46 296.886L1170.76 342.218M1170.76 342.218L1093.88 423.815L1072.09 545.305M1170.76 342.218L1180.45 605.143L1118.1 703.06M1072.09 545.305L887.459 655.008L841.452 791.911M1072.09 545.305L1129 634.156L1118.1 703.06M1072.09 545.305L841.452 791.911M841.452 791.911L611.417 922.07M786.97 634.156L648.343 739.326M1400.8 716.66L1343.9 739.326M1118.1 703.06L1072.09 791.911L1093.88 837.243M1400.8 318.645L1462.55 388.456L1491 516.293L1425.62 470.961L1400.8 318.645Z" stroke="#7D6D54"/>
<path className="mt-2--fill" d="M1827 1060.45C1827 1060.45 1679.51 1008.92 1611.47 985.916C1580.76 982.807 1526.04 967.796 1489.26 902.503C1347.36 858.353 1312.51 758.237 1207.12 725.902C1080.16 725.902 1036.18 701.65 1036.18 701.65C1036.18 701.65 1012.12 680.618 937.265 596.56C799.271 553.574 818.074 515.91 804.66 531.267C771.258 569.509 735.785 596.56 735.785 596.56C735.785 596.56 680.465 591.074 647.824 581.014C536.424 546.681 549.076 518.209 434.56 461C270.95 461 345.01 531.267 267.007 559.872C222.282 576.273 290.171 628.274 184.784 628.274C103.462 659.365 95.3583 709.512 49.5232 765.077C-8.6825 835.64 -65.6683 805.373 -128.058 873.899C-186.54 938.132 -260 1044.28 -260 1044.28L1390.51 1057.07L1827 1060.45Z" fill="#F1DAB7"/>
<path d="M1036.18 701.65C1036.18 701.65 1080.16 725.902 1207.12 725.902C1312.51 758.237 1347.36 858.353 1489.26 902.503C1526.04 967.796 1580.76 982.807 1611.47 985.916C1679.51 1008.92 1827 1060.45 1827 1060.45L1390.51 1057.07M1036.18 701.65C1036.18 701.65 1012.12 680.618 937.265 596.56C799.271 553.574 818.074 515.91 804.66 531.267C771.258 569.509 735.785 596.56 735.785 596.56C735.785 596.56 680.465 591.074 647.824 581.014C536.424 546.681 549.076 518.209 434.56 461M1036.18 701.65L1149.87 798.657V859.596L1339.9 931.729M434.56 461C270.95 461 345.01 531.267 267.007 559.872C222.282 576.273 290.171 628.274 184.784 628.274C103.462 659.365 95.3583 709.512 49.5232 765.077M434.56 461L515.883 559.872V628.274M49.5232 765.077C-8.68255 835.64 -65.6683 805.373 -128.059 873.899C-186.54 938.132 -260 1044.28 -260 1044.28L1390.51 1057.07M49.5232 765.077L135.584 931.729L308.427 916.183L386.431 931.729M515.883 628.274L623.759 659.365L729.147 715.331L759.02 798.657M515.883 628.274L470.242 701.65M759.02 798.657L1012.12 873.899L1075.18 967.796L1390.51 1057.07M759.02 798.657L681.017 859.596L695.954 906.856" stroke="#7D6D54" stroke-width="2"/>
<path className="mt-2--fill__shadow" d="M1489.26 902.503C1347.36 858.353 1312.51 758.237 1207.12 725.902C1080.16 725.902 1036.18 701.65 1036.18 701.65L938.5 596L809.198 527.685C809.057 527.575 808.902 527.493 808.735 527.44C775.333 565.682 735.785 596.56 735.785 596.56C735.785 596.56 693.931 600.133 666.028 591.125L647.824 581.014C539.053 543.726 549.076 518.209 434.56 461C274.405 461 341.067 531.267 263.064 559.872C218.339 576.273 290.171 628.274 184.784 628.274C103.462 659.365 95.3583 709.512 49.5232 765.077C-8.68262 835.64 -65.6685 805.373 -128.059 873.899L-94.8657 1043.66L49.5232 765.077L138.212 931.729L308.427 916.183L49.5232 765.077C95.3583 709.512 103.462 659.365 184.784 628.274C290.171 628.274 218.339 576.273 263.064 559.872L308.427 643.198L223.786 691.079L184.784 778.758L274.405 747.666L308.427 643.198L263.064 559.872C341.067 531.267 274.405 461 434.56 461L470.242 701.65L515.883 628.274L623.759 659.365L610.482 839.698L695.954 906.856L681.017 859.596L759.02 798.656L1075.18 967.796L1012.12 873.899L759.02 798.656L729.147 715.331L623.759 659.365L515.883 628.274V559.872L434.56 461C549.076 518.209 539.053 543.726 647.824 581.014C652.221 585.468 658.634 588.738 666.028 591.125L788.894 659.365L804.66 735.851L894.281 765.077L818.767 715.331V643.198L735.785 596.56C735.785 596.56 775.333 565.682 808.735 527.44L809.198 527.685C817.068 533.798 785.446 626.203 846.583 609.71C940.353 664.431 1036.18 701.65 1036.18 701.65L1149.87 859.596V798.656L1036.18 701.65C1036.18 701.65 1080.16 725.902 1207.12 725.902L1238.66 778.758L1369.77 859.596L1390.51 906.856L1564.78 998.887L1489.26 902.503Z" fill="#E8C68C"/>
<path d="M1207.12 725.902C1312.51 758.237 1347.36 858.353 1489.26 902.503L1564.78 998.887L1390.51 906.856L1369.77 859.596L1238.66 778.758L1207.12 725.902ZM1207.12 725.902C1080.16 725.902 1036.18 701.65 1036.18 701.65M1036.18 701.65C1036.18 701.65 940.353 664.431 846.583 609.71C784.346 626.499 818.235 530.44 808.735 527.44M1036.18 701.65L1149.87 798.656V859.596M1036.18 701.65L1149.87 859.596M1036.18 701.65L938.5 596L808.735 527.44M735.785 596.56C735.785 596.56 668.813 602.277 647.824 581.014M735.785 596.56C735.785 596.56 775.333 565.682 808.735 527.44M735.785 596.56L818.767 643.198V715.331L894.281 765.077L804.66 735.851L788.894 659.365L647.824 581.014M647.824 581.014C539.053 543.726 549.075 518.209 434.56 461M434.56 461C274.405 461 341.067 531.267 263.064 559.872M434.56 461L515.883 559.872V628.274M434.56 461L470.242 701.65L515.883 628.274M263.064 559.872C218.339 576.273 290.171 628.274 184.784 628.274C103.462 659.365 95.3582 709.512 49.5232 765.077M263.064 559.872L308.427 643.198M49.5232 765.077C-8.68256 835.64 -65.6684 805.373 -128.059 873.899L-94.8657 1043.66L49.5232 765.077ZM49.5232 765.077L138.212 931.729L308.427 916.183M49.5232 765.077L308.427 916.183M515.883 628.274L623.759 659.365M623.759 659.365L729.147 715.331L759.02 798.656M623.759 659.365L610.482 839.698L695.954 906.856M759.02 798.656L1012.12 873.899L1075.18 967.796M759.02 798.656L681.017 859.596L695.954 906.856M759.02 798.656L1075.18 967.796M1075.18 967.796L1390.51 1057.07M1149.87 859.596L1339.89 931.729M308.427 916.183L386.431 931.729M695.954 906.856L759.02 967.796L729.147 998.887M308.427 643.198L223.786 691.079L184.784 778.758L274.405 747.666L308.427 643.198Z" stroke="#7D6D54" stroke-width="2"/>
<g filter="url(#filter0_d)">
<path d="M62.5758 747.303C-51.5558 762.634 -270 904 -270 904H1666L1482.06 788.456C1273.56 689.587 1277.69 694.542 902.995 622.261C790.898 622.261 824.961 583.219 717.199 608.544C528.151 652.971 506.01 727.82 242.179 747.303C172.302 752.463 184.582 768.934 62.5758 747.303Z" fill="#116979"/>
<path d="M902.996 622.261C790.898 622.261 824.961 583.219 717.199 608.544C528.151 652.971 506.01 727.82 242.179 747.303C172.302 752.463 184.582 768.934 62.5758 747.303C-51.5558 762.634 -270 904 -270 904H1666L1482.06 788.456C1273.56 689.587 1277.69 694.542 902.996 622.261ZM902.996 622.261C902.996 622.261 652.17 629.648 571.658 747.303C491.147 864.958 62.5758 799.577 62.5758 799.577" stroke="#553B11" stroke-width="2"/>
</g>
</g>
<defs>
<filter id="filter0_d" x="-277.386" y="599" width="1950.86" height="314" filterUnits="userSpaceOnUse" color-interpolation-filters="sRGB">
<feFlood flood-opacity="0" result="BackgroundImageFix"/>
<feColorMatrix in="SourceAlpha" type="matrix" values="0 0 0 0 0 0 0 0 0 0 0 0 0 0 0 0 0 0 127 0"/>
<feOffset dy="4"/>
<feGaussianBlur stdDeviation="2"/>
<feColorMatrix type="matrix" values="0 0 0 0 0 0 0 0 0 0 0 0 0 0 0 0 0 0 0.25 0"/>
<feBlend mode="normal" in2="BackgroundImageFix" result="effect1_dropShadow"/>
<feBlend mode="normal" in="SourceGraphic" in2="effect1_dropShadow" result="shape"/>
</filter>
</defs>
</svg>
