<svg width="295" height="215" viewBox="0 0 295 215" fill="none" xmlns="http://www.w3.org/2000/svg">
<path d="M9 131C9 131 29.7555 102.354 38.2652 98.3237C42.105 97.779 45.8847 102.601 51.2374 103.334C68.9833 95.6006 73.3419 78.0643 86.5217 72.4004C102.4 72.4004 107.9 68.1525 107.9 68.1525C107.9 68.1525 115.579 47.8932 127.306 38.3081C135.089 41.249 135.176 35.618 136.854 38.3081C141.031 45.0066 145.467 49.7448 145.467 49.7448C145.467 49.7448 153.843 50.7461 156.468 47.0218C167.676 31.1193 168.817 36.0207 183.138 26C195.177 29.9212 189.157 38.3081 198.913 43.3185C204.506 46.1913 201.196 55.2998 214.375 55.2998C224.546 60.7458 225.559 69.5295 231.291 79.2624C238.57 91.6223 245.697 86.3207 253.499 98.3237C260.813 109.575 270 128.168 270 128.168L63.5869 130.408L9 131Z" fill="#F1DDBB"/>
<path d="M107.9 68.1525C107.9 68.1525 102.4 72.4004 86.5217 72.4004C73.3419 78.0643 68.9833 95.6006 51.2374 103.334C45.8847 102.601 42.105 97.779 38.2652 98.3237C29.7555 102.354 9 131 9 131L63.5869 130.408M107.9 68.1525C107.9 68.1525 115.579 47.8932 127.306 38.3081C135.089 41.249 135.176 35.618 136.854 38.3081C141.031 45.0066 145.467 49.7448 145.467 49.7448C145.467 49.7448 153.843 50.7461 156.468 47.0218C167.676 31.1193 168.817 36.0207 183.138 26M107.9 68.1525L93.6823 85.1442V95.8185L69.9173 108.453M183.138 26C195.177 29.9212 189.157 38.3081 198.913 43.3185C204.506 46.1913 201.196 55.2998 214.375 55.2998C224.546 60.7459 225.559 69.5295 231.291 79.2624M183.138 26L172.968 43.3185V55.2998M231.291 79.2624C238.57 91.6223 245.697 86.3207 253.499 98.3237C260.813 109.575 270 128.168 270 128.168L63.5869 130.408M231.291 79.2624L198.913 92.333V105.73L189.157 108.453M172.968 55.2998L159.477 60.7459L146.297 70.5488L142.561 85.1442M172.968 55.2998L178.676 68.1525M142.561 85.1442L110.909 98.3237L103.022 114.771L63.5869 130.408M142.561 85.1442L152.316 95.8185L150.449 104.096" stroke="#7D6D54"/>
<path d="M51.2374 103.334C68.9833 95.6006 73.3419 78.0643 86.5217 72.4004C102.4 72.4004 107.9 68.1525 107.9 68.1525C107.9 68.1525 115.579 47.8932 127.306 38.3081C135.089 41.249 135.176 35.618 136.854 38.3081C141.031 45.0066 145.467 49.7448 145.467 49.7448C145.467 49.7448 150.701 50.3706 154.191 48.7927L156.468 47.0218C167.676 31.1193 168.817 36.0207 183.138 26C195.177 29.9212 189.157 38.3081 198.913 43.3185C204.506 46.1913 201.196 55.2998 214.375 55.2998C224.546 60.7458 225.559 69.5295 231.291 79.2624C238.57 91.6223 245.697 86.3206 253.499 98.3236L249.348 128.059L231.291 79.2624L198.913 105.73V92.333L231.291 79.2624C225.559 69.5295 224.546 60.7458 214.375 55.2998C201.196 55.2998 204.506 46.1913 198.913 43.3185V57.9139L209.498 66.3008L214.375 81.6587L203.167 76.2127L198.913 57.9139V43.3185C189.157 38.3081 195.177 29.9212 183.138 26L178.676 68.1525L172.968 55.2998L159.477 60.7458L161.138 92.333L150.448 104.096L152.316 95.8185L142.561 85.1442L103.022 114.771L110.909 98.3236L142.561 85.1442L146.297 70.5488L159.477 60.7458L172.968 55.2998V43.3185L183.138 26C168.817 36.0207 167.676 31.1193 156.468 47.0218C155.918 47.8019 155.116 48.3747 154.191 48.7927L138.825 60.7458L136.854 74.1432L125.646 79.2624L135.089 70.5488V57.9139L145.467 49.7448C145.467 49.7448 141.031 45.0066 136.854 38.3081L107.9 68.1525L93.6823 95.8185V85.1442L107.9 68.1525C107.9 68.1525 102.4 72.4004 86.5217 72.4004L82.5781 81.6587L66.1813 95.8185L63.5869 104.096L41.7936 120.217L51.2374 103.334Z" fill="#ECD0A1"/>
<path d="M38.2652 98.3236C42.105 97.779 45.8847 102.601 51.2374 103.334M51.2374 103.334C68.9833 95.6006 73.3419 78.0643 86.5217 72.4004M51.2374 103.334L41.7936 120.217L63.5869 104.096L66.1813 95.8185L82.5781 81.6587L86.5217 72.4004M86.5217 72.4004C102.4 72.4004 107.9 68.1525 107.9 68.1525M107.9 68.1525C107.9 68.1525 115.579 47.8932 127.306 38.3081C135.089 41.249 135.176 35.618 136.854 38.3081M107.9 68.1525L93.6823 85.1442V95.8185M107.9 68.1525L93.6823 95.8185M107.9 68.1525L136.854 38.3081M145.467 49.7448C145.467 49.7448 153.843 50.7461 156.468 47.0218M145.467 49.7448C145.467 49.7448 141.031 45.0066 136.854 38.3081M145.467 49.7448L135.089 57.9139V70.5488L125.646 79.2624L136.854 74.1432L138.825 60.7458L156.468 47.0218M156.468 47.0218C167.676 31.1193 168.817 36.0207 183.138 26M183.138 26C195.177 29.9212 189.157 38.3081 198.912 43.3185M183.138 26L172.968 43.3185V55.2998M183.138 26L178.676 68.1525L172.968 55.2998M198.912 43.3185C204.506 46.1913 201.196 55.2998 214.375 55.2998C224.545 60.7458 225.559 69.5295 231.291 79.2624M198.912 43.3185V57.9139M231.291 79.2624C238.57 91.6223 245.697 86.3206 253.499 98.3236L249.348 128.059L231.291 79.2624ZM231.291 79.2624L198.912 92.333V105.73M231.291 79.2624L198.912 105.73M172.968 55.2998L159.477 60.7458M159.477 60.7458L146.297 70.5488L142.561 85.1442M159.477 60.7458L161.138 92.333L150.448 104.096M142.561 85.1442L110.909 98.3236L103.022 114.771M142.561 85.1442L152.316 95.8185L150.448 104.096M142.561 85.1442L103.022 114.771M103.022 114.771L63.5869 130.408M93.6823 95.8185L69.9173 108.453M198.912 105.73L189.157 108.453M150.448 104.096L142.561 114.771L146.297 120.217M198.912 57.9139L209.498 66.3008L214.375 81.6587L203.167 76.2127L198.912 57.9139Z" stroke="#7D6D54"/>
<mask id="path-6-inside-1" fill="white">
<path fill-rule="evenodd" clip-rule="evenodd" d="M222.57 205.098C262.007 205.562 295 205.95 295 162.5C295 118.34 260.919 118.616 220.631 118.943C217.128 118.971 213.578 119 210 119C165.265 119 129 139.028 129 162.5C129 166.933 127.894 171.208 126.855 175.225C122.391 192.481 119.153 205 210 205C214.24 205 218.441 205.049 222.57 205.098ZM227.347 180.96C247.304 181.159 264 181.325 264 162.697C264 143.765 246.753 143.883 226.366 144.024C224.593 144.036 222.797 144.048 220.986 144.048C198.348 144.048 149.506 155.675 149.506 165.738C149.506 167.981 147.767 169.978 146.244 171.728C140.933 177.828 138.242 180.918 220.986 180.918C223.132 180.918 225.257 180.939 227.347 180.96Z"/>
</mask>
<path fill-rule="evenodd" clip-rule="evenodd" d="M222.57 205.098C262.007 205.562 295 205.95 295 162.5C295 118.34 260.919 118.616 220.631 118.943C217.128 118.971 213.578 119 210 119C165.265 119 129 139.028 129 162.5C129 166.933 127.894 171.208 126.855 175.225C122.391 192.481 119.153 205 210 205C214.24 205 218.441 205.049 222.57 205.098ZM227.347 180.96C247.304 181.159 264 181.325 264 162.697C264 143.765 246.753 143.883 226.366 144.024C224.593 144.036 222.797 144.048 220.986 144.048C198.348 144.048 149.506 155.675 149.506 165.738C149.506 167.981 147.767 169.978 146.244 171.728C140.933 177.828 138.242 180.918 220.986 180.918C223.132 180.918 225.257 180.939 227.347 180.96Z" fill="#F1DDBB"/>
<path d="M222.57 205.098L222.582 204.098L222.582 204.098L222.57 205.098ZM220.631 118.943L220.623 117.943L220.631 118.943ZM126.855 175.225L125.887 174.975L125.887 174.975L126.855 175.225ZM227.347 180.96L227.357 179.96L227.357 179.96L227.347 180.96ZM226.366 144.024L226.373 145.024L226.373 145.024L226.366 144.024ZM146.244 171.728L145.489 171.071L145.489 171.071L146.244 171.728ZM294 162.5C294 173.242 291.96 181.167 288.375 187.03C284.799 192.879 279.63 196.765 273.202 199.338C266.754 201.92 259.052 203.176 250.458 203.75C241.866 204.324 232.451 204.214 222.582 204.098L222.558 206.098C232.408 206.214 241.906 206.326 250.591 205.746C259.275 205.166 267.216 203.89 273.945 201.195C280.695 198.493 286.24 194.357 290.082 188.073C293.915 181.803 296 173.483 296 162.5H294ZM220.639 119.943C230.721 119.861 240.364 119.783 249.178 120.398C257.995 121.013 265.914 122.318 272.553 124.967C279.173 127.61 284.504 131.582 288.195 137.544C291.893 143.519 294 151.583 294 162.5H296C296 151.336 293.846 142.875 289.896 136.492C285.937 130.096 280.23 125.878 273.294 123.11C266.377 120.349 258.222 119.024 249.317 118.403C240.411 117.782 230.686 117.861 220.623 117.943L220.639 119.943ZM210 120C213.583 120 217.137 119.971 220.639 119.943L220.623 117.943C217.119 117.971 213.574 118 210 118V120ZM130 162.5C130 151.313 138.665 140.702 153.201 132.827C167.689 124.978 187.769 120 210 120V118C187.496 118 167.076 123.035 152.248 131.069C137.467 139.076 128 150.215 128 162.5H130ZM127.823 175.476C128.857 171.477 130 167.081 130 162.5H128C128 166.785 126.931 170.938 125.887 174.975L127.823 175.476ZM210 204C187.305 204 170.517 203.218 158.17 201.781C145.802 200.342 137.98 198.254 133.154 195.7C128.394 193.18 126.616 190.251 126.179 187.023C125.722 183.657 126.692 179.847 127.823 175.476L125.887 174.975C124.786 179.232 123.677 183.457 124.197 187.292C124.736 191.264 126.99 194.7 132.218 197.467C137.38 200.2 145.503 202.32 157.939 203.768C170.396 205.217 187.271 206 210 206V204ZM222.582 204.098C218.453 204.05 214.247 204 210 204V206C214.234 206 218.428 206.049 222.558 206.098L222.582 204.098ZM263 162.697C263 167.205 261.991 170.465 260.269 172.852C258.546 175.239 256.034 176.857 252.836 177.942C246.365 180.137 237.402 180.06 227.357 179.96L227.337 181.96C237.249 182.059 246.612 182.165 253.479 179.836C256.949 178.659 259.859 176.838 261.89 174.023C263.922 171.208 265 167.504 265 162.697H263ZM226.373 145.024C236.632 144.953 245.843 144.902 252.508 147.156C255.805 148.27 258.399 149.926 260.179 152.363C261.959 154.798 263 158.117 263 162.697H265C265 157.812 263.886 154.046 261.794 151.183C259.704 148.321 256.712 146.466 253.149 145.261C246.093 142.875 236.488 142.954 226.359 143.024L226.373 145.024ZM220.986 145.048C222.801 145.048 224.601 145.036 226.373 145.024L226.359 143.024C224.586 143.036 222.793 143.048 220.986 143.048V145.048ZM150.506 165.738C150.506 164.893 151.026 163.859 152.329 162.649C153.612 161.458 155.516 160.228 157.944 158.995C162.791 156.533 169.532 154.157 177.024 152.083C192.011 147.933 209.787 145.048 220.986 145.048V143.048C209.547 143.048 191.583 145.976 176.49 150.155C168.941 152.246 162.056 154.663 157.038 157.212C154.533 158.484 152.445 159.813 150.968 161.184C149.512 162.536 148.506 164.066 148.506 165.738H150.506ZM146.998 172.384C147.75 171.521 148.619 170.525 149.294 169.448C149.97 168.367 150.506 167.12 150.506 165.738H148.506C148.506 166.598 148.172 167.471 147.598 168.387C147.022 169.307 146.261 170.185 145.489 171.071L146.998 172.384ZM220.986 179.918C179.583 179.918 159.667 179.142 150.762 177.625C148.54 177.246 147.079 176.832 146.161 176.408C145.225 175.976 145.05 175.628 145.015 175.489C144.973 175.328 145.001 175.014 145.383 174.406C145.753 173.818 146.318 173.166 146.998 172.384L145.489 171.071C144.842 171.815 144.16 172.594 143.69 173.342C143.232 174.071 142.824 174.998 143.077 175.985C143.335 176.994 144.183 177.698 145.322 178.224C146.48 178.758 148.146 179.207 150.426 179.596C159.535 181.149 179.645 181.918 220.986 181.918V179.918ZM227.357 179.96C225.268 179.939 223.138 179.918 220.986 179.918V181.918C223.126 181.918 225.247 181.939 227.337 181.96L227.357 179.96Z" fill="black" mask="url(#path-6-inside-1)"/>
<rect x="0.5" y="91.5" width="230" height="89" rx="2.5" fill="#116979" stroke="black"/>
<rect x="4.5" y="93.5" width="15" height="15" rx="2.5" fill="#178CA1" stroke="black"/>
<rect x="82.5" y="161.5" width="67" height="15" rx="2.5" fill="#178CA1" stroke="black"/>
<rect x="4.5" y="127.5" width="29" height="15" rx="2.5" fill="#178CA1" stroke="black"/>
<rect x="201.5" y="127.5" width="26" height="15" rx="2.5" fill="#178CA1" stroke="black"/>
<rect x="4.5" y="161.5" width="15" height="15" rx="2.5" fill="#178CA1" stroke="black"/>
<rect x="152.5" y="161.5" width="23" height="15" rx="2.5" fill="#178CA1" stroke="black"/>
<rect x="22.5" y="161.5" width="15" height="15" rx="2.5" fill="#178CA1" stroke="black"/>
<rect x="40.5" y="161.5" width="15" height="15" rx="2.5" fill="#178CA1" stroke="black"/>
<rect x="176.5" y="161.5" width="15" height="15" rx="2.5" fill="#178CA1" stroke="black"/>
<rect x="205.5" y="161.5" width="11" height="7" rx="1.5" fill="#178CA1" stroke="black"/>
<rect x="205.5" y="169.5" width="11" height="7" rx="1.5" fill="#178CA1" stroke="black"/>
<rect x="216.5" y="169.5" width="11" height="7" rx="1.5" fill="#178CA1" stroke="black"/>
<rect x="193.5" y="169.5" width="12" height="7" rx="1.5" fill="#178CA1" stroke="black"/>
<rect x="59.5" y="161.5" width="20" height="15" rx="2.5" fill="#178CA1" stroke="black"/>
<rect x="4.5" y="144.5" width="35" height="15" rx="2.5" fill="#178CA1" stroke="black"/>
<rect x="192.5" y="144.5" width="35" height="15" rx="2.5" fill="#178CA1" stroke="black"/>
<rect x="4.5" y="110.5" width="24" height="15" rx="2.5" fill="#178CA1" stroke="black"/>
<rect x="201.5" y="93.5" width="26" height="15" rx="2.5" fill="#178CA1" stroke="black"/>
<rect x="112.5" y="93.5" width="15" height="15" rx="2.5" fill="#178CA1" stroke="black"/>
<rect x="104.5" y="110.5" width="15" height="15" rx="2.5" fill="#178CA1" stroke="black"/>
<rect x="110.5" y="127.5" width="15" height="15" rx="2.5" fill="#178CA1" stroke="black"/>
<rect x="116.5" y="144.5" width="15" height="15" rx="2.5" fill="#178CA1" stroke="black"/>
<rect x="148.5" y="93.5" width="15" height="15" rx="2.5" fill="#178CA1" stroke="black"/>
<rect x="140.5" y="110.5" width="15" height="15" rx="2.5" fill="#178CA1" stroke="black"/>
<rect x="146.5" y="127.5" width="15" height="15" rx="2.5" fill="#178CA1" stroke="black"/>
<rect x="152.5" y="144.5" width="15" height="15" rx="2.5" fill="#178CA1" stroke="black"/>
<rect x="94.5" y="93.5" width="15" height="15" rx="2.5" fill="#178CA1" stroke="black"/>
<rect x="86.5" y="110.5" width="15" height="15" rx="2.5" fill="#178CA1" stroke="black"/>
<rect x="92.5" y="127.5" width="15" height="15" rx="2.5" fill="#178CA1" stroke="black"/>
<rect x="98.5" y="144.5" width="15" height="15" rx="2.5" fill="#178CA1" stroke="black"/>
<rect x="130.5" y="93.5" width="15" height="15" rx="2.5" fill="#178CA1" stroke="black"/>
<rect x="122.5" y="110.5" width="15" height="15" rx="2.5" fill="#178CA1" stroke="black"/>
<rect x="128.5" y="127.5" width="15" height="15" rx="2.5" fill="#178CA1" stroke="black"/>
<rect x="134.5" y="144.5" width="15" height="15" rx="2.5" fill="#178CA1" stroke="black"/>
<rect x="166.5" y="93.5" width="15" height="15" rx="2.5" fill="#178CA1" stroke="black"/>
<rect x="158.5" y="110.5" width="15" height="15" rx="2.5" fill="#178CA1" stroke="black"/>
<rect x="164.5" y="127.5" width="15" height="15" rx="2.5" fill="#178CA1" stroke="black"/>
<rect x="170.5" y="144.5" width="15" height="15" rx="2.5" fill="#178CA1" stroke="black"/>
<rect x="194.5" y="110.5" width="15" height="15" rx="2.5" fill="#178CA1" stroke="black"/>
<rect x="212.5" y="110.5" width="15" height="15" rx="2.5" fill="#178CA1" stroke="black"/>
<rect x="184.5" y="93.5" width="15" height="15" rx="2.5" fill="#178CA1" stroke="black"/>
<rect x="176.5" y="110.5" width="15" height="15" rx="2.5" fill="#178CA1" stroke="black"/>
<rect x="182.5" y="127.5" width="15" height="15" rx="2.5" fill="#178CA1" stroke="black"/>
<rect x="76.5" y="93.5" width="15" height="15" rx="2.5" fill="#178CA1" stroke="black"/>
<rect x="68.5" y="110.5" width="15" height="15" rx="2.5" fill="#178CA1" stroke="black"/>
<rect x="74.5" y="127.5" width="15" height="15" rx="2.5" fill="#178CA1" stroke="black"/>
<rect x="80.5" y="144.5" width="15" height="15" rx="2.5" fill="#178CA1" stroke="black"/>
<rect x="40.5" y="93.5" width="15" height="15" rx="2.5" fill="#178CA1" stroke="black"/>
<rect x="32.5" y="110.5" width="15" height="15" rx="2.5" fill="#178CA1" stroke="black"/>
<rect x="38.5" y="127.5" width="15" height="15" rx="2.5" fill="#178CA1" stroke="black"/>
<rect x="44.5" y="144.5" width="15" height="15" rx="2.5" fill="#178CA1" stroke="black"/>
<rect x="22.5" y="93.5" width="15" height="15" rx="2.5" fill="#178CA1" stroke="black"/>
<rect x="58.5" y="93.5" width="15" height="15" rx="2.5" fill="#178CA1" stroke="black"/>
<rect x="50.5" y="110.5" width="15" height="15" rx="2.5" fill="#178CA1" stroke="black"/>
<rect x="56.5" y="127.5" width="15" height="15" rx="2.5" fill="#178CA1" stroke="black"/>
<rect x="62.5" y="144.5" width="15" height="15" rx="2.5" fill="#178CA1" stroke="black"/>
<mask id="path-65-inside-2" fill="white">
<path fill-rule="evenodd" clip-rule="evenodd" d="M68 1C68 0.447715 67.5523 0 67 0H1C0.447715 0 0 0.447715 0 0.999999V82C0 82.5523 0.447715 83 1 83H62.7718C62.922 83 63.0703 83.0338 63.2056 83.099L73.0892 87.8578C74.0144 88.3032 74.9297 87.2318 74.3452 86.3876L68.1778 77.4791C68.062 77.3118 68 77.1132 68 76.9098V1Z"/>
</mask>
<path fill-rule="evenodd" clip-rule="evenodd" d="M68 1C68 0.447715 67.5523 0 67 0H1C0.447715 0 0 0.447715 0 0.999999V82C0 82.5523 0.447715 83 1 83H62.7718C62.922 83 63.0703 83.0338 63.2056 83.099L73.0892 87.8578C74.0144 88.3032 74.9297 87.2318 74.3452 86.3876L68.1778 77.4791C68.062 77.3118 68 77.1132 68 76.9098V1Z" fill="#178CA1"/>
<path d="M68.1778 77.4791L67.3556 78.0483L68.1778 77.4791ZM73.0892 87.8578L72.6554 88.7588L73.0892 87.8578ZM63.2056 83.099L63.6394 82.198L63.2056 83.099ZM1 1H67V-1H1V1ZM1 82V0.999999H-1V82H1ZM62.7718 82H1V84H62.7718V82ZM73.523 86.9568L63.6394 82.198L62.7718 84L72.6554 88.7588L73.523 86.9568ZM67.3556 78.0483L73.523 86.9568L75.1674 85.8184L69 76.9098L67.3556 78.0483ZM67 1V76.9098H69V1H67ZM69 76.9098L69 76.9098H67C67 77.3166 67.1241 77.7138 67.3556 78.0483L69 76.9098ZM72.6554 88.7588C74.5058 89.6497 76.3364 87.5069 75.1674 85.8184L73.523 86.9568L73.523 86.9568L72.6554 88.7588ZM62.7718 84L62.7718 84L63.6394 82.198C63.3688 82.0677 63.0722 82 62.7718 82V84ZM-1 82C-1 83.1046 -0.10457 84 1 84V82L1 82H-1ZM67 1L67 1H69C69 -0.104571 68.1046 -1 67 -1V1ZM1 -1C-0.104569 -1 -1 -0.104571 -1 0.999999H1L1 1V-1Z" fill="black" mask="url(#path-65-inside-2)"/>
<rect x="6.5" y="7.5" width="52" height="7" fill="#116979" stroke="black"/>
<rect x="6.5" y="18.5" width="40" height="4" fill="#116979" stroke="black"/>
<rect x="6.25" y="57.25" width="56.5" height="0.5" fill="#116979" stroke="black" stroke-width="0.5"/>
<rect x="6.25" y="36.25" width="56.5" height="0.5" fill="#116979" stroke="black" stroke-width="0.5"/>
<rect x="6.25" y="60.25" width="56.5" height="0.5" fill="#116979" stroke="black" stroke-width="0.5"/>
<rect x="6.25" y="39.25" width="56.5" height="0.5" fill="#116979" stroke="black" stroke-width="0.5"/>
<rect x="6.25" y="63.25" width="56.5" height="0.5" fill="#116979" stroke="black" stroke-width="0.5"/>
<rect x="6.25" y="42.25" width="56.5" height="0.5" fill="#116979" stroke="black" stroke-width="0.5"/>
<rect x="6.25" y="66.25" width="56.5" height="0.5" fill="#116979" stroke="black" stroke-width="0.5"/>
<rect x="6.25" y="45.25" width="56.5" height="0.5" fill="#116979" stroke="black" stroke-width="0.5"/>
<rect x="6.25" y="45.25" width="56.5" height="0.5" fill="#116979" stroke="black" stroke-width="0.5"/>
<path d="M111.488 194.683L166.016 213.617C167.965 214.293 170 212.846 170 210.783V169.474C170 167.34 167.835 165.888 165.861 166.698L111.333 189.074C108.777 190.123 108.878 193.777 111.488 194.683Z" fill="#F0D8B2" stroke="black"/>
</svg>
