<svg class="syntax" width="295" height="215" fill="none" xmlns="http://www.w3.org/2000/svg">
    <path class="mt-2--fill"
        d="M9 131s20.756-28.646 29.265-32.676c3.84-.545 7.62 4.277 12.972 5.01 17.746-7.733 22.105-25.27 35.285-30.934 15.878 0 21.378-4.248 21.378-4.248s7.679-20.259 19.406-29.844c7.783 2.941 7.87-2.69 9.548 0 4.177 6.699 8.613 11.437 8.613 11.437s8.376 1.001 11.001-2.723C167.676 31.119 168.817 36.02 183.138 26c12.039 3.921 6.019 12.308 15.775 17.319 5.593 2.872 2.283 11.98 15.462 11.98 10.171 5.447 11.184 14.23 16.916 23.963 7.279 12.36 14.406 7.059 22.208 19.062C260.813 109.575 270 128.168 270 128.168l-206.413 2.24L9 131z"
        fill="#F1DDBB" />
    <path
        d="M107.9 68.153S102.4 72.4 86.522 72.4c-13.18 5.664-17.539 23.2-35.285 30.934-5.352-.733-9.132-5.555-12.972-5.01C29.755 102.354 9 131 9 131l54.587-.592M107.9 68.153s7.679-20.26 19.406-29.845c7.783 2.941 7.87-2.69 9.548 0 4.177 6.699 8.613 11.437 8.613 11.437s8.376 1.001 11.001-2.723C167.676 31.119 168.817 36.02 183.138 26M107.9 68.153L93.682 85.144v10.674l-23.765 12.635M183.138 26c12.039 3.921 6.019 12.308 15.775 17.319 5.593 2.872 2.283 11.98 15.462 11.98 10.171 5.447 11.184 14.23 16.916 23.963M183.138 26l-10.17 17.319v11.98m58.323 23.963c7.279 12.36 14.406 7.059 22.208 19.062C260.813 109.575 270 128.168 270 128.168l-206.413 2.24M231.29 79.262l-32.378 13.071v13.397l-9.756 2.723M172.968 55.3l-13.491 5.446-13.18 9.803-3.736 14.595M172.968 55.3l5.708 12.853m-36.115 16.991l-31.652 13.18-7.887 16.447-39.435 15.637m78.974-45.264l9.755 10.674-1.867 8.278"
        stroke="#7D6D54" />
    <path class="mt-2--fill__shadow"
        d="M51.237 103.334c17.746-7.733 22.105-25.27 35.285-30.934 15.878 0 21.378-4.248 21.378-4.248s7.679-20.259 19.406-29.844c7.783 2.941 7.87-2.69 9.548 0 4.177 6.699 8.613 11.437 8.613 11.437s5.234.626 8.724-.952l2.277-1.771C167.676 31.119 168.817 36.02 183.138 26c12.039 3.921 6.019 12.308 15.775 17.319 5.593 2.872 2.283 11.98 15.462 11.98 10.171 5.447 11.184 14.23 16.916 23.963 7.279 12.36 14.406 7.059 22.208 19.062l-4.151 29.735-18.057-48.797-32.378 26.468V92.333l32.378-13.07c-5.732-9.734-6.745-18.517-16.916-23.963-13.179 0-9.869-9.109-15.462-11.981v14.595l10.585 8.387 4.877 15.358-11.208-5.446-4.254-18.3V43.32c-9.756-5.01-3.736-13.398-15.775-17.319l-4.462 42.153-5.708-12.853-13.491 5.446 1.661 31.587-10.69 11.763 1.868-8.278-9.755-10.674-39.539 29.627 7.887-16.447 31.652-13.18 3.736-14.595 13.18-9.803 13.491-5.446V43.319L183.138 26c-14.321 10.02-15.462 5.12-26.67 21.022-.55.78-1.352 1.353-2.277 1.77l-15.366 11.954-1.971 13.397-11.208 5.12 9.443-8.714V57.914l10.378-8.17s-4.436-4.737-8.613-11.436L107.9 68.153 93.682 95.817V85.144L107.9 68.152S102.4 72.4 86.522 72.4l-3.944 9.259-16.397 14.16-2.594 8.277-21.793 16.121 9.443-16.883z"
        fill="#ECD0A1" />
    <path
        d="M38.265 98.324c3.84-.545 7.62 4.277 12.972 5.01m0 0c17.746-7.733 22.105-25.27 35.285-30.934m-35.285 30.934l-9.443 16.883 21.793-16.121 2.594-8.278 16.397-14.16 3.944-9.258m0 0c15.878 0 21.378-4.248 21.378-4.248m0 0s7.679-20.259 19.406-29.844c7.783 2.941 7.87-2.69 9.548 0M107.9 68.153L93.682 85.144v10.674M107.9 68.154L93.682 95.817M107.9 68.154l28.954-29.845m8.613 11.437s8.376 1.001 11.001-2.723m-11.001 2.723s-4.436-4.738-8.613-11.437m8.613 11.437l-10.378 8.169v12.635l-9.443 8.713 11.208-5.119 1.971-13.397 17.643-13.724m0 0C167.676 31.119 168.817 36.02 183.138 26m0 0c12.039 3.921 6.019 12.308 15.774 17.319M183.138 26l-10.17 17.319v11.98M183.138 26l-4.462 42.153-5.708-12.853m25.944-11.981c5.594 2.872 2.284 11.98 15.463 11.98 10.17 5.447 11.184 14.23 16.916 23.963m-32.379-35.944v14.596m32.379 21.348c7.279 12.36 14.406 7.059 22.208 19.062l-4.151 29.735-18.057-48.797zm0 0l-32.379 13.071v13.397m32.379-26.468l-32.379 26.468M172.968 55.3l-13.491 5.446m0 0l-13.18 9.803-3.736 14.595m16.916-24.398l1.661 31.587-10.69 11.763m-7.887-18.952l-31.652 13.18-7.887 16.447m39.539-29.627l9.755 10.674-1.868 8.278m-7.887-18.952l-39.539 29.627m0 0l-39.435 15.637m30.095-34.59l-23.765 12.635m128.995-2.723l-9.755 2.723m-38.709-4.357l-7.887 10.675 3.736 5.446m52.615-62.303l10.586 8.387 4.877 15.358-11.208-5.446-4.255-18.3z"
        stroke="#7D6D54" />
    <mask id="a" fill="#fff">
        <path class="mt-2--fill__shadow" fill-rule="evenodd" clip-rule="evenodd"
            d="M222.57 205.098c39.437.464 72.43.852 72.43-42.598 0-44.16-34.081-43.884-74.369-43.557-3.503.028-7.053.057-10.631.057-44.735 0-81 20.028-81 43.5 0 4.433-1.106 8.708-2.145 12.725C122.391 192.481 119.153 205 210 205c4.24 0 8.441.049 12.57.098zm4.777-24.138c19.957.199 36.653.365 36.653-18.263 0-18.932-17.247-18.814-37.634-18.673-1.773.012-3.569.024-5.38.024-22.638 0-71.48 11.627-71.48 21.69 0 2.243-1.739 4.24-3.262 5.99-5.311 6.1-8.002 9.19 74.742 9.19 2.146 0 4.271.021 6.361.042z" />
    </mask>
    <path class="mt-2--fill__shadow" fill-rule="evenodd" clip-rule="evenodd"
        d="M222.57 205.098c39.437.464 72.43.852 72.43-42.598 0-44.16-34.081-43.884-74.369-43.557-3.503.028-7.053.057-10.631.057-44.735 0-81 20.028-81 43.5 0 4.433-1.106 8.708-2.145 12.725C122.391 192.481 119.153 205 210 205c4.24 0 8.441.049 12.57.098zm4.777-24.138c19.957.199 36.653.365 36.653-18.263 0-18.932-17.247-18.814-37.634-18.673-1.773.012-3.569.024-5.38.024-22.638 0-71.48 11.627-71.48 21.69 0 2.243-1.739 4.24-3.262 5.99-5.311 6.1-8.002 9.19 74.742 9.19 2.146 0 4.271.021 6.361.042z"
        fill="#F1DDBB" />
    <path
        d="M222.57 205.098l.012-1-.012 1zm-1.939-86.155l-.008-1 .008 1zm-93.776 56.282l-.968-.25.968.25zm100.492 5.735l.01-1-.01 1zm-.981-36.936l.007 1-.007-1zm-80.122 27.704l-.755-.657.755.657zM294 162.5c0 10.742-2.04 18.667-5.625 24.53-3.576 5.849-8.745 9.735-15.173 12.308-6.448 2.582-14.15 3.838-22.744 4.412-8.592.574-18.007.464-27.876.348l-.024 2c9.85.116 19.348.228 28.033-.352 8.684-.58 16.625-1.856 23.354-4.551 6.75-2.702 12.295-6.838 16.137-13.122 3.833-6.27 5.918-14.59 5.918-25.573h-2zm-73.361-42.557c10.082-.082 19.725-.16 28.539.455 8.817.615 16.736 1.92 23.375 4.569 6.62 2.643 11.951 6.615 15.642 12.577 3.698 5.975 5.805 14.039 5.805 24.956h2c0-11.164-2.154-19.625-6.104-26.008-3.959-6.396-9.666-10.614-16.602-13.382-6.917-2.761-15.072-4.086-23.977-4.707-8.906-.621-18.631-.542-28.694-.46l.016 2zM210 120c3.583 0 7.137-.029 10.639-.057l-.016-2c-3.504.028-7.049.057-10.623.057v2zm-80 42.5c0-11.187 8.665-21.798 23.201-29.673C167.689 124.978 187.769 120 210 120v-2c-22.504 0-42.924 5.035-57.752 13.069C137.467 139.076 128 150.215 128 162.5h2zm-2.177 12.976c1.034-3.999 2.177-8.395 2.177-12.976h-2c0 4.285-1.069 8.438-2.113 12.475l1.936.501zM210 204c-22.695 0-39.483-.782-51.83-2.219-12.368-1.439-20.19-3.527-25.016-6.081-4.76-2.52-6.538-5.449-6.975-8.677-.457-3.366.513-7.176 1.644-11.547l-1.936-.501c-1.101 4.257-2.21 8.482-1.69 12.317.539 3.972 2.793 7.408 8.021 10.175 5.162 2.733 13.285 4.853 25.721 6.301C170.396 205.217 187.271 206 210 206v-2zm12.582.098c-4.129-.048-8.335-.098-12.582-.098v2c4.234 0 8.428.049 12.558.098l.024-2zM263 162.697c0 4.508-1.009 7.768-2.731 10.155-1.723 2.387-4.235 4.005-7.433 5.09-6.471 2.195-15.434 2.118-25.479 2.018l-.02 2c9.912.099 19.275.205 26.142-2.124 3.47-1.177 6.38-2.998 8.411-5.813 2.032-2.815 3.11-6.519 3.11-11.326h-2zm-36.627-17.673c10.259-.071 19.47-.122 26.135 2.132 3.297 1.114 5.891 2.77 7.671 5.207 1.78 2.435 2.821 5.754 2.821 10.334h2c0-4.885-1.114-8.651-3.206-11.514-2.09-2.862-5.082-4.717-8.645-5.922-7.056-2.386-16.661-2.307-26.79-2.237l.014 2zm-5.387.024c1.815 0 3.615-.012 5.387-.024l-.014-2c-1.773.012-3.566.024-5.373.024v2zm-70.48 20.69c0-.845.52-1.879 1.823-3.089 1.283-1.191 3.187-2.421 5.615-3.654 4.847-2.462 11.588-4.838 19.08-6.912 14.987-4.15 32.763-7.035 43.962-7.035v-2c-11.439 0-29.403 2.928-44.496 7.107-7.549 2.091-14.434 4.508-19.452 7.057-2.505 1.272-4.593 2.601-6.07 3.972-1.456 1.352-2.462 2.882-2.462 4.554h2zm-3.508 6.646c.752-.863 1.621-1.859 2.296-2.936.676-1.081 1.212-2.328 1.212-3.71h-2c0 .86-.334 1.733-.908 2.649-.576.92-1.337 1.798-2.109 2.684l1.509 1.313zm73.988 7.534c-41.403 0-61.319-.776-70.224-2.293-2.222-.379-3.683-.793-4.601-1.217-.936-.432-1.111-.78-1.146-.919-.042-.161-.014-.475.368-1.083.37-.588.935-1.24 1.615-2.022l-1.509-1.313c-.647.744-1.329 1.523-1.799 2.271-.458.729-.866 1.656-.613 2.643.258 1.009 1.106 1.713 2.245 2.239 1.158.534 2.824.983 5.104 1.372 9.109 1.553 29.219 2.322 70.56 2.322v-2zm6.371.042a631.796 631.796 0 00-6.371-.042v2c2.14 0 4.261.021 6.351.042l.02-2z"
        fill="#000" mask="url(#a)" />
    <rect x=".5" y="91.5" width="230" height="89" rx="2.5" fill="#116979" stroke="#000" />
    <rect x="4.5" y="93.5" width="15" height="15" rx="2.5" fill="#178CA1" stroke="#000" />
    <rect x="82.5" y="161.5" width="67" height="15" rx="2.5" fill="#178CA1" stroke="#000" />
    <rect x="4.5" y="127.5" width="29" height="15" rx="2.5" fill="#178CA1" stroke="#000" />
    <rect x="201.5" y="127.5" width="26" height="15" rx="2.5" fill="#178CA1" stroke="#000" />
    <rect x="4.5" y="161.5" width="15" height="15" rx="2.5" fill="#178CA1" stroke="#000" />
    <rect x="152.5" y="161.5" width="23" height="15" rx="2.5" fill="#178CA1" stroke="#000" />
    <rect x="22.5" y="161.5" width="15" height="15" rx="2.5" fill="#178CA1" stroke="#000" />
    <rect x="40.5" y="161.5" width="15" height="15" rx="2.5" fill="#178CA1" stroke="#000" />
    <rect x="176.5" y="161.5" width="15" height="15" rx="2.5" fill="#178CA1" stroke="#000" />
    <rect x="205.5" y="161.5" width="11" height="7" rx="1.5" fill="#178CA1" stroke="#000" />
    <rect x="205.5" y="169.5" width="11" height="7" rx="1.5" fill="#178CA1" stroke="#000" />
    <rect x="216.5" y="169.5" width="11" height="7" rx="1.5" fill="#178CA1" stroke="#000" />
    <rect x="193.5" y="169.5" width="12" height="7" rx="1.5" fill="#178CA1" stroke="#000" />
    <rect x="59.5" y="161.5" width="20" height="15" rx="2.5" fill="#178CA1" stroke="#000" />
    <rect x="4.5" y="144.5" width="35" height="15" rx="2.5" fill="#178CA1" stroke="#000" />
    <rect x="192.5" y="144.5" width="35" height="15" rx="2.5" fill="#178CA1" stroke="#000" />
    <rect x="4.5" y="110.5" width="24" height="15" rx="2.5" fill="#178CA1" stroke="#000" />
    <rect x="201.5" y="93.5" width="26" height="15" rx="2.5" fill="#178CA1" stroke="#000" />
    <rect x="112.5" y="93.5" width="15" height="15" rx="2.5" fill="#178CA1" stroke="#000" />
    <rect x="104.5" y="110.5" width="15" height="15" rx="2.5" fill="#178CA1" stroke="#000" />
    <rect x="110.5" y="127.5" width="15" height="15" rx="2.5" fill="#178CA1" stroke="#000" />
    <rect x="116.5" y="144.5" width="15" height="15" rx="2.5" fill="#178CA1" stroke="#000" />
    <rect x="148.5" y="93.5" width="15" height="15" rx="2.5" fill="#178CA1" stroke="#000" />
    <rect x="140.5" y="110.5" width="15" height="15" rx="2.5" fill="#178CA1" stroke="#000" />
    <rect x="146.5" y="127.5" width="15" height="15" rx="2.5" fill="#178CA1" stroke="#000" />
    <rect x="152.5" y="144.5" width="15" height="15" rx="2.5" fill="#178CA1" stroke="#000" />
    <rect x="94.5" y="93.5" width="15" height="15" rx="2.5" fill="#178CA1" stroke="#000" />
    <rect x="86.5" y="110.5" width="15" height="15" rx="2.5" fill="#178CA1" stroke="#000" />
    <rect x="92.5" y="127.5" width="15" height="15" rx="2.5" fill="#178CA1" stroke="#000" />
    <rect x="98.5" y="144.5" width="15" height="15" rx="2.5" fill="#178CA1" stroke="#000" />
    <rect x="130.5" y="93.5" width="15" height="15" rx="2.5" fill="#178CA1" stroke="#000" />
    <rect x="122.5" y="110.5" width="15" height="15" rx="2.5" fill="#178CA1" stroke="#000" />
    <rect x="128.5" y="127.5" width="15" height="15" rx="2.5" fill="#178CA1" stroke="#000" />
    <rect x="134.5" y="144.5" width="15" height="15" rx="2.5" fill="#178CA1" stroke="#000" />
    <rect x="166.5" y="93.5" width="15" height="15" rx="2.5" fill="#178CA1" stroke="#000" />
    <rect x="158.5" y="110.5" width="15" height="15" rx="2.5" fill="#178CA1" stroke="#000" />
    <rect x="164.5" y="127.5" width="15" height="15" rx="2.5" fill="#178CA1" stroke="#000" />
    <rect x="170.5" y="144.5" width="15" height="15" rx="2.5" fill="#178CA1" stroke="#000" />
    <rect x="194.5" y="110.5" width="15" height="15" rx="2.5" fill="#178CA1" stroke="#000" />
    <rect x="212.5" y="110.5" width="15" height="15" rx="2.5" fill="#178CA1" stroke="#000" />
    <rect x="184.5" y="93.5" width="15" height="15" rx="2.5" fill="#178CA1" stroke="#000" />
    <rect x="176.5" y="110.5" width="15" height="15" rx="2.5" fill="#178CA1" stroke="#000" />
    <rect x="182.5" y="127.5" width="15" height="15" rx="2.5" fill="#178CA1" stroke="#000" />
    <rect x="76.5" y="93.5" width="15" height="15" rx="2.5" fill="#178CA1" stroke="#000" />
    <rect x="68.5" y="110.5" width="15" height="15" rx="2.5" fill="#178CA1" stroke="#000" />
    <rect x="74.5" y="127.5" width="15" height="15" rx="2.5" fill="#178CA1" stroke="#000" />
    <rect x="80.5" y="144.5" width="15" height="15" rx="2.5" fill="#178CA1" stroke="#000" />
    <rect x="40.5" y="93.5" width="15" height="15" rx="2.5" fill="#178CA1" stroke="#000" />
    <rect x="32.5" y="110.5" width="15" height="15" rx="2.5" fill="#178CA1" stroke="#000" />
    <rect x="38.5" y="127.5" width="15" height="15" rx="2.5" fill="#178CA1" stroke="#000" />
    <rect x="44.5" y="144.5" width="15" height="15" rx="2.5" fill="#178CA1" stroke="#000" />
    <rect x="22.5" y="93.5" width="15" height="15" rx="2.5" fill="#178CA1" stroke="#000" />
    <rect x="58.5" y="93.5" width="15" height="15" rx="2.5" fill="#178CA1" stroke="#000" />
    <rect x="50.5" y="110.5" width="15" height="15" rx="2.5" fill="#178CA1" stroke="#000" />
    <rect x="56.5" y="127.5" width="15" height="15" rx="2.5" fill="#178CA1" stroke="#000" />
    <rect x="62.5" y="144.5" width="15" height="15" rx="2.5" fill="#178CA1" stroke="#000" />
    <mask id="b" fill="#fff">
        <path fill-rule="evenodd" clip-rule="evenodd"
            d="M68 1a1 1 0 00-1-1H1a1 1 0 00-1 1v81a1 1 0 001 1h61.772a1 1 0 01.434.099l9.883 4.759c.925.445 1.84-.626 1.256-1.47l-6.167-8.909a1 1 0 01-.178-.57V1z" />
    </mask>
    <path fill-rule="evenodd" clip-rule="evenodd"
        d="M68 1a1 1 0 00-1-1H1a1 1 0 00-1 1v81a1 1 0 001 1h61.772a1 1 0 01.434.099l9.883 4.759c.925.445 1.84-.626 1.256-1.47l-6.167-8.909a1 1 0 01-.178-.57V1z"
        fill="#178CA1" />
    <path
        d="M68.178 77.48l-.822.568.822-.569zm4.911 10.378l-.434.9.434-.9zm-9.883-4.759l.433-.901-.433.901zM1 1h66v-2H1v2zm0 81V1h-2v81h2zm61.772 0H1v2h61.772v-2zm10.751 4.957l-9.884-4.759L62.772 84l9.883 4.759.868-1.802zm-6.167-8.909l6.167 8.909 1.644-1.139L69 76.91l-1.644 1.138zM67 1v75.91h2V1h-2zm2 75.91h-2a2 2 0 00.356 1.138L69 76.91zm3.655 11.849c1.85.89 3.681-1.252 2.512-2.94l-1.644 1.138-.868 1.802zM62.772 84l.867-1.802a2 2 0 00-.867-.198v2zM-1 82a2 2 0 002 2v-2h-2zM67 1h2a2 2 0 00-2-2v2zM1-1a2 2 0 00-2 2h2v-2z"
        fill="#000" mask="url(#b)" />
    <path fill="#116979" stroke="#000" d="M6.5 7.5h52v7h-52zM6.5 18.5h40v4h-40z" />
    <path fill="#116979" stroke="#000" stroke-width=".5"
        d="M6.25 57.25h56.5v.5H6.25zM6.25 36.25h56.5v.5H6.25zM6.25 60.25h56.5v.5H6.25zM6.25 39.25h56.5v.5H6.25zM6.25 63.25h56.5v.5H6.25zM6.25 42.25h56.5v.5H6.25zM6.25 66.25h56.5v.5H6.25zM6.25 45.25h56.5v.5H6.25z" />
    <path fill="#116979" stroke="#000" stroke-width=".5" d="M6.25 45.25h56.5v.5H6.25z" />
    <path class="mt-2--fill__shadow"
        d="M111.488 194.683l54.528 18.934c1.949.676 3.984-.771 3.984-2.834v-41.309c0-2.134-2.165-3.586-4.139-2.776l-54.528 22.376c-2.556 1.049-2.455 4.703.155 5.609z"
        fill="#F0D8B2" stroke="#000" />
</svg>