<svg width="263" height="107" viewBox="0 0 263 107" fill="none" xmlns="http://www.w3.org/2000/svg">
<path d="M1 106C1 106 21.7555 77.3537 30.2652 73.3237C34.105 72.779 37.8847 77.6007 43.2374 78.334C60.9833 70.6006 65.3419 53.0643 78.5217 47.4004C94.3996 47.4004 99.8998 43.1525 99.8998 43.1525C99.8998 43.1525 107.579 22.8932 119.306 13.3081C127.089 16.249 127.176 10.618 128.854 13.3081C133.031 20.0066 137.467 24.7448 137.467 24.7448C137.467 24.7448 145.843 25.7461 148.468 22.0218C159.676 6.11929 160.817 11.0207 175.138 1C187.177 4.92116 181.157 13.3081 190.913 18.3185C196.506 21.1913 193.196 30.2998 206.375 30.2998C216.546 35.7458 217.559 44.5295 223.291 54.2624C230.57 66.6223 237.697 61.3207 245.499 73.3237C252.813 84.5747 262 103.168 262 103.168L55.5869 105.408L1 106Z" fill="#F1DDBB"/>
<path d="M99.8998 43.1525C99.8998 43.1525 94.3996 47.4004 78.5217 47.4004C65.3419 53.0643 60.9833 70.6006 43.2374 78.334C37.8847 77.6007 34.105 72.779 30.2652 73.3237C21.7555 77.3537 1 106 1 106L55.5869 105.408M99.8998 43.1525C99.8998 43.1525 107.579 22.8932 119.306 13.3081C127.089 16.249 127.176 10.618 128.854 13.3081C133.031 20.0066 137.467 24.7448 137.467 24.7448C137.467 24.7448 145.843 25.7461 148.468 22.0218C159.676 6.11929 160.817 11.0207 175.138 1M99.8998 43.1525L85.6823 60.1442V70.8185L61.9173 83.4533M175.138 1C187.177 4.92116 181.157 13.3081 190.913 18.3185C196.506 21.1913 193.196 30.2998 206.375 30.2998C216.546 35.7459 217.559 44.5295 223.291 54.2624M175.138 1L164.968 18.3185V30.2998M223.291 54.2624C230.57 66.6223 237.697 61.3207 245.499 73.3237C252.813 84.5747 262 103.168 262 103.168L55.5869 105.408M223.291 54.2624L190.913 67.333V80.7303L181.157 83.4533M164.968 30.2998L151.477 35.7459L138.297 45.5488L134.561 60.1442M164.968 30.2998L170.676 43.1525M134.561 60.1442L102.909 73.3237L95.0223 89.7707L55.5869 105.408M134.561 60.1442L144.316 70.8185L142.449 79.0965" stroke="#7D6D54"/>
<path d="M43.2374 78.334C60.9833 70.6006 65.3419 53.0643 78.5217 47.4004C94.3996 47.4004 99.8998 43.1525 99.8998 43.1525C99.8998 43.1525 107.579 22.8932 119.306 13.3081C127.089 16.249 127.176 10.618 128.854 13.3081C133.031 20.0066 137.467 24.7448 137.467 24.7448C137.467 24.7448 142.701 25.3706 146.191 23.7927L148.468 22.0218C159.676 6.11929 160.817 11.0207 175.138 1C187.177 4.92116 181.157 13.3081 190.913 18.3185C196.506 21.1913 193.196 30.2998 206.375 30.2998C216.546 35.7458 217.559 44.5295 223.291 54.2624C230.57 66.6223 237.697 61.3206 245.499 73.3236L241.348 103.059L223.291 54.2624L190.913 80.7303V67.333L223.291 54.2624C217.559 44.5295 216.546 35.7458 206.375 30.2998C193.196 30.2998 196.506 21.1913 190.913 18.3185V32.9139L201.498 41.3008L206.375 56.6587L195.167 51.2127L190.913 32.9139V18.3185C181.157 13.3081 187.177 4.92116 175.138 1L170.676 43.1525L164.968 30.2998L151.477 35.7458L153.138 67.333L142.448 79.0965L144.316 70.8185L134.561 60.1442L95.0222 89.7707L102.909 73.3236L134.561 60.1442L138.297 45.5488L151.477 35.7458L164.968 30.2998V18.3185L175.138 1C160.817 11.0207 159.676 6.11929 148.468 22.0218C147.918 22.8019 147.116 23.3747 146.191 23.7927L130.825 35.7458L128.854 49.1432L117.646 54.2624L127.089 45.5488V32.9139L137.467 24.7448C137.467 24.7448 133.031 20.0066 128.854 13.3081L99.8998 43.1525L85.6823 70.8185V60.1442L99.8998 43.1525C99.8998 43.1525 94.3996 47.4004 78.5217 47.4004L74.5781 56.6587L58.1813 70.8185L55.5869 79.0965L33.7936 95.2168L43.2374 78.334Z" fill="#ECD0A1"/>
<path d="M30.2652 73.3236C34.105 72.779 37.8847 77.6007 43.2374 78.334M43.2374 78.334C60.9833 70.6006 65.3419 53.0643 78.5217 47.4004M43.2374 78.334L33.7936 95.2168L55.5869 79.0965L58.1813 70.8185L74.5781 56.6587L78.5217 47.4004M78.5217 47.4004C94.3996 47.4004 99.8998 43.1525 99.8998 43.1525M99.8998 43.1525C99.8998 43.1525 107.579 22.8932 119.306 13.3081C127.089 16.249 127.176 10.618 128.854 13.3081M99.8998 43.1525L85.6823 60.1442V70.8185M99.8998 43.1525L85.6823 70.8185M99.8998 43.1525L128.854 13.3081M137.467 24.7448C137.467 24.7448 145.843 25.7461 148.468 22.0218M137.467 24.7448C137.467 24.7448 133.031 20.0066 128.854 13.3081M137.467 24.7448L127.089 32.9139V45.5488L117.646 54.2624L128.854 49.1432L130.825 35.7458L148.468 22.0218M148.468 22.0218C159.676 6.11929 160.817 11.0207 175.138 1M175.138 1C187.177 4.92116 181.157 13.3081 190.912 18.3185M175.138 1L164.968 18.3185V30.2998M175.138 1L170.676 43.1525L164.968 30.2998M190.912 18.3185C196.506 21.1913 193.196 30.2998 206.375 30.2998C216.545 35.7458 217.559 44.5295 223.291 54.2624M190.912 18.3185V32.9139M223.291 54.2624C230.57 66.6223 237.697 61.3206 245.499 73.3236L241.348 103.059L223.291 54.2624ZM223.291 54.2624L190.912 67.333V80.7303M223.291 54.2624L190.912 80.7303M164.968 30.2998L151.477 35.7458M151.477 35.7458L138.297 45.5488L134.561 60.1442M151.477 35.7458L153.138 67.333L142.448 79.0965M134.561 60.1442L102.909 73.3236L95.0222 89.7707M134.561 60.1442L144.316 70.8185L142.448 79.0965M134.561 60.1442L95.0222 89.7707M95.0222 89.7707L55.5869 105.408M85.6823 70.8185L61.9173 83.4533M190.912 80.7303L181.157 83.4533M142.448 79.0965L134.561 89.7707L138.297 95.2168M190.912 32.9139L201.498 41.3008L206.375 56.6587L195.167 51.2127L190.912 32.9139Z" stroke="#7D6D54"/>
</svg>
