<svg width="1519" height="700" viewBox="0 0 1519 700" fill="none" xmlns="http://www.w3.org/2000/svg">
<g clip-path="url(#clip0)">
<path d="M-220 645.703C-220 645.703 -155.666 570.486 -129.289 559.904C-117.387 558.474 -105.672 571.134 -89.0803 573.06C-34.0748 552.754 -20.5646 506.708 20.2875 491.836C69.503 491.836 86.5515 480.682 86.5515 480.682C86.5515 480.682 110.355 427.486 146.704 402.318C170.829 410.04 171.098 395.254 176.297 402.318C189.245 419.907 202.996 432.348 202.996 432.348C202.996 432.348 228.957 434.977 237.093 425.198C271.833 383.442 275.372 396.312 319.762 370C357.076 380.296 338.419 402.318 368.656 415.474C385.993 423.017 375.733 446.934 416.585 446.934C448.109 461.234 451.25 484.297 469.017 509.854C491.58 542.308 513.67 528.387 537.854 559.904C560.524 589.446 589 638.268 589 638.268L-50.8016 644.148L-220 645.703Z" fill="#C4C4C4"/>
<path d="M86.5515 480.682C86.5515 480.682 69.503 491.836 20.2875 491.836C-20.5646 506.708 -34.0748 552.754 -89.0803 573.06C-105.672 571.134 -117.387 558.474 -129.289 559.904C-155.666 570.486 -220 645.703 -220 645.703L-50.8016 644.148M86.5515 480.682C86.5515 480.682 110.355 427.486 146.704 402.318C170.829 410.04 171.098 395.254 176.297 402.318C189.245 419.907 202.996 432.348 202.996 432.348C202.996 432.348 228.957 434.977 237.093 425.198C271.833 383.442 275.372 396.312 319.762 370M86.5515 480.682L42.4827 525.298V553.326L-31.1797 586.502M319.762 370C357.076 380.296 338.419 402.318 368.656 415.474C385.993 423.017 375.733 446.934 416.585 446.934C448.109 461.234 451.25 484.297 469.017 509.854M319.762 370L288.239 415.474V446.934M469.017 509.854C491.58 542.308 513.67 528.387 537.854 559.904C560.524 589.446 589 638.268 589 638.268L-50.8016 644.148M469.017 509.854L368.656 544.174V579.352L338.419 586.502M288.239 446.934L246.421 461.234L205.569 486.974L193.989 525.298M288.239 446.934L305.93 480.682M193.989 525.298L95.8799 559.904L71.433 603.09L-50.8016 644.148M193.989 525.298L224.226 553.326L218.436 575.062" stroke="black" stroke-width="2"/>
<path d="M-89.0803 573.06C-34.0747 552.754 -20.5646 506.708 20.2875 491.836C69.503 491.836 86.5515 480.682 86.5515 480.682C86.5515 480.682 110.355 427.486 146.704 402.318C170.829 410.04 171.098 395.254 176.297 402.318C189.245 419.907 202.996 432.348 202.996 432.348C202.996 432.348 219.22 433.991 230.037 429.848L237.093 425.198C271.833 383.442 275.372 396.312 319.762 370C357.076 380.296 338.419 402.318 368.656 415.474C385.993 423.017 375.733 446.934 416.585 446.934C448.109 461.234 451.25 484.297 469.017 509.854C491.58 542.308 513.67 528.387 537.854 559.904L524.988 637.982L469.017 509.854L368.656 579.352V544.174L469.017 509.854C451.25 484.297 448.109 461.234 416.585 446.934C375.733 446.934 385.993 423.017 368.656 415.474V453.798L401.466 475.82L416.585 516.146L381.845 501.846L368.656 453.798V415.474C338.419 402.318 357.076 380.296 319.762 370L305.93 480.682L288.239 446.934L246.421 461.234L251.568 544.174L218.436 575.062L224.226 553.326L193.989 525.298L71.433 603.09L95.8799 559.904L193.989 525.298L205.569 486.974L246.421 461.234L288.239 446.934V415.474L319.762 370C275.372 396.312 271.833 383.442 237.093 425.198C235.389 427.246 232.903 428.75 230.037 429.848L182.409 461.234L176.297 496.412L141.557 509.854L170.829 486.974V453.798L202.996 432.348C202.996 432.348 189.245 419.907 176.297 402.318L86.5515 480.682L42.4827 553.326V525.298L86.5515 480.682C86.5515 480.682 69.503 491.836 20.2875 491.836L8.06403 516.146L-42.7598 553.326L-50.8016 575.062L-118.352 617.39L-89.0803 573.06Z" fill="#40382B"/>
<path d="M-129.289 559.904C-117.387 558.474 -105.672 571.134 -89.0803 573.06M-89.0803 573.06C-34.0747 552.754 -20.5646 506.708 20.2875 491.836M-89.0803 573.06L-118.352 617.39L-50.8016 575.062L-42.7598 553.326L8.06403 516.146L20.2875 491.836M20.2875 491.836C69.503 491.836 86.5515 480.682 86.5515 480.682M86.5515 480.682C86.5515 480.682 110.355 427.486 146.704 402.318C170.829 410.04 171.098 395.254 176.297 402.318M86.5515 480.682L42.4827 525.298V553.326M86.5515 480.682L42.4827 553.326M86.5515 480.682L176.297 402.318M202.996 432.348C202.996 432.348 228.957 434.977 237.093 425.198M202.996 432.348C202.996 432.348 189.245 419.907 176.297 402.318M202.996 432.348L170.829 453.798V486.974L141.557 509.854L176.297 496.412L182.409 461.234L237.093 425.198M237.093 425.198C271.833 383.442 275.372 396.312 319.762 370M319.762 370C357.076 380.296 338.419 402.318 368.656 415.474M319.762 370L288.239 415.474V446.934M319.762 370L305.93 480.682L288.239 446.934M368.656 415.474C385.993 423.017 375.733 446.934 416.585 446.934C448.109 461.234 451.25 484.297 469.017 509.854M368.656 415.474V453.798M469.017 509.854C491.58 542.308 513.67 528.387 537.855 559.904L524.988 637.982L469.017 509.854ZM469.017 509.854L368.656 544.174V579.352M469.017 509.854L368.656 579.352M288.239 446.934L246.421 461.234M246.421 461.234L205.569 486.974L193.989 525.298M246.421 461.234L251.568 544.174L218.436 575.062M193.989 525.298L95.8799 559.904L71.433 603.09M193.989 525.298L224.226 553.326L218.436 575.062M193.989 525.298L71.433 603.09M71.433 603.09L-50.8016 644.148M42.4827 553.326L-31.1797 586.502M368.656 579.352L338.419 586.502M218.436 575.062L193.989 603.09L205.569 617.39M368.656 453.798L401.466 475.82L416.585 516.146L381.845 501.846L368.656 453.798Z" stroke="black" stroke-width="2"/>
<path d="M108.65 615.345C-8.25269 633.803 -232 804 -232 804H1751L1562.6 664.891C1349.03 545.858 1353.26 551.824 969.472 464.801C854.654 464.801 889.543 417.796 779.165 448.286C585.528 501.775 562.849 591.889 292.613 615.345C221.039 621.557 233.618 641.388 108.65 615.345Z" fill="#C4C4C4"/>
<path d="M969.472 464.801C854.654 464.801 889.543 417.796 779.165 448.286C585.528 501.775 562.849 591.889 292.613 615.345C221.039 621.557 233.618 641.388 108.65 615.345C-8.25269 633.803 -232 804 -232 804H1751L1562.6 664.891C1349.03 545.858 1353.26 551.824 969.472 464.801ZM969.472 464.801C969.472 464.801 558.409 577.868 475.942 719.518C393.476 861.168 130.218 719.518 130.218 719.518" stroke="black" stroke-width="3"/>
<path d="M720.207 158.689L717.562 155.448L807 128.627L720.207 158.689Z" fill="#40382B"/>
<path fill-rule="evenodd" clip-rule="evenodd" d="M778.52 154.916C779.557 153.088 780.136 151.055 780.136 148.912C780.136 140.948 772.142 134.492 762.281 134.492C752.42 134.492 744.426 140.948 744.426 148.912C744.426 151.055 745.005 153.088 746.043 154.916C719.448 158.652 699.872 171.345 699.872 186.429C699.872 204.449 727.813 219.057 762.281 219.057C796.749 219.057 824.691 204.449 824.691 186.429C824.691 171.345 805.114 158.652 778.52 154.916Z" fill="black"/>
<path d="M879.166 358.789C879.166 362.272 876.304 365.878 870.379 369.364C864.522 372.809 855.981 375.947 845.339 378.595C824.069 383.887 794.634 387.171 762.083 387.171C729.532 387.171 700.096 383.887 678.827 378.595C668.185 375.947 659.643 372.809 653.787 369.364C647.862 365.878 645 362.272 645 358.789C645 355.306 647.862 351.7 653.787 348.214C659.643 344.769 668.185 341.631 678.827 338.983C700.096 333.691 729.532 330.407 762.083 330.407C794.634 330.407 824.069 333.691 845.339 338.983C855.981 341.631 864.522 344.769 870.379 348.214C876.304 351.7 879.166 355.306 879.166 358.789Z" fill="#E5E5E5" stroke="#40382B" stroke-width="2"/>
<mask id="path-11-inside-1" fill="white">
<path fill-rule="evenodd" clip-rule="evenodd" d="M770.815 255.766C780.835 253.239 788.586 246.295 791.027 234.804C791.51 235.518 792.07 236.152 792.718 236.686C795.471 236.686 796.642 227.451 795.475 219.189C797.384 217.083 800.459 204.122 792.718 204.122C791.492 204.122 790.433 205.797 789.635 208.24C785.158 193.306 774.332 191.412 761.687 191.412C748.945 191.412 738.05 193.335 733.637 208.583C732.827 205.955 731.727 204.122 730.445 204.122C722.704 204.122 725.779 217.083 727.688 219.189C726.521 227.451 727.692 236.686 730.445 236.686C731.166 236.092 731.778 235.375 732.296 234.561C734.739 246.494 742.869 253.576 753.335 255.952C753.255 256.944 753.213 257.962 753.213 259.001C753.213 260.343 753.283 261.652 753.416 262.912C728.743 266.707 709.971 285.932 709.971 309.077C709.971 334.949 733.426 355.922 762.36 355.922C791.294 355.922 814.749 334.949 814.749 309.077C814.749 285.761 795.699 266.424 770.758 262.831C770.886 261.596 770.953 260.314 770.953 259.001C770.953 257.897 770.905 256.816 770.815 255.766Z"/>
</mask>
<path fill-rule="evenodd" clip-rule="evenodd" d="M770.815 255.766C780.835 253.239 788.586 246.295 791.027 234.804C791.51 235.518 792.07 236.152 792.718 236.686C795.471 236.686 796.642 227.451 795.475 219.189C797.384 217.083 800.459 204.122 792.718 204.122C791.492 204.122 790.433 205.797 789.635 208.24C785.158 193.306 774.332 191.412 761.687 191.412C748.945 191.412 738.05 193.335 733.637 208.583C732.827 205.955 731.727 204.122 730.445 204.122C722.704 204.122 725.779 217.083 727.688 219.189C726.521 227.451 727.692 236.686 730.445 236.686C731.166 236.092 731.778 235.375 732.296 234.561C734.739 246.494 742.869 253.576 753.335 255.952C753.255 256.944 753.213 257.962 753.213 259.001C753.213 260.343 753.283 261.652 753.416 262.912C728.743 266.707 709.971 285.932 709.971 309.077C709.971 334.949 733.426 355.922 762.36 355.922C791.294 355.922 814.749 334.949 814.749 309.077C814.749 285.761 795.699 266.424 770.758 262.831C770.886 261.596 770.953 260.314 770.953 259.001C770.953 257.897 770.905 256.816 770.815 255.766Z" fill="#178CA1"/>
<path d="M770.815 255.766L770.325 253.827L768.675 254.243L768.822 255.938L770.815 255.766ZM791.027 234.804L792.684 233.684L790.048 229.784L789.07 234.388L791.027 234.804ZM792.718 236.686L791.448 238.23L792.001 238.686H792.718V236.686ZM795.475 219.189L793.993 217.846L793.364 218.54L793.495 219.469L795.475 219.189ZM789.635 208.24L787.719 208.814L789.553 214.931L791.536 208.861L789.635 208.24ZM733.637 208.583L731.725 209.172L733.697 215.57L735.558 209.139L733.637 208.583ZM727.688 219.189L729.668 219.469L729.799 218.54L729.17 217.846L727.688 219.189ZM730.445 236.686V238.686H731.162L731.716 238.23L730.445 236.686ZM732.296 234.561L734.255 234.16L733.263 229.313L730.608 233.487L732.296 234.561ZM753.335 255.952L755.329 256.114L755.469 254.386L753.778 254.002L753.335 255.952ZM753.416 262.912L753.72 264.889L755.605 264.599L755.405 262.702L753.416 262.912ZM770.758 262.831L768.769 262.625L768.571 264.536L770.473 264.81L770.758 262.831ZM771.304 257.705C782.002 255.007 790.372 247.517 792.983 235.219L789.07 234.388C786.801 245.073 779.668 251.47 770.325 253.827L771.304 257.705ZM789.37 235.924C789.947 236.779 790.634 237.561 791.448 238.23L793.989 235.141C793.506 234.744 793.072 234.258 792.684 233.684L789.37 235.924ZM792.718 238.686C794.659 238.686 795.745 237.085 796.277 235.981C796.881 234.724 797.287 233.086 797.545 231.326C798.067 227.774 798.062 223.207 797.456 218.909L793.495 219.469C794.055 223.433 794.048 227.614 793.588 230.745C793.355 232.327 793.025 233.513 792.672 234.247C792.246 235.132 792.154 234.686 792.718 234.686V238.686ZM796.957 220.532C797.403 220.04 797.762 219.386 798.044 218.762C798.343 218.102 798.621 217.33 798.86 216.5C799.336 214.848 799.693 212.851 799.715 210.889C799.737 208.967 799.441 206.841 798.385 205.13C797.239 203.274 795.326 202.122 792.718 202.122V206.122C793.981 206.122 794.586 206.591 794.981 207.231C795.466 208.016 795.733 209.261 795.716 210.843C795.698 212.384 795.412 214.022 795.017 215.392C794.82 216.074 794.605 216.66 794.4 217.112C794.298 217.338 794.205 217.516 794.126 217.649C794.087 217.715 794.054 217.764 794.029 217.799C794.004 217.835 793.991 217.848 793.993 217.846L796.957 220.532ZM792.718 202.122C791.127 202.122 790.035 203.199 789.39 204.102C788.703 205.062 788.162 206.308 787.734 207.618L791.536 208.861C791.906 207.729 792.294 206.916 792.643 206.428C793.033 205.883 793.083 206.122 792.718 206.122V202.122ZM791.551 207.665C789.174 199.736 785.012 195.041 779.594 192.425C774.309 189.873 768.045 189.412 761.687 189.412V193.412C767.974 193.412 773.445 193.898 777.854 196.027C782.13 198.091 785.62 201.81 787.719 208.814L791.551 207.665ZM761.687 189.412C755.281 189.412 748.969 189.88 743.658 192.484C738.212 195.154 734.055 199.944 731.716 208.027L735.558 209.139C737.632 201.974 741.129 198.178 745.419 196.075C749.845 193.906 755.351 193.412 761.687 193.412V189.412ZM735.548 207.994C735.117 206.593 734.568 205.263 733.871 204.24C733.224 203.293 732.106 202.122 730.445 202.122V206.122C730.066 206.122 730.139 205.869 730.566 206.494C730.941 207.045 731.348 207.945 731.725 209.172L735.548 207.994ZM730.445 202.122C727.837 202.122 725.924 203.274 724.778 205.13C723.722 206.841 723.426 208.967 723.448 210.889C723.47 212.851 723.827 214.848 724.303 216.5C724.542 217.33 724.82 218.102 725.119 218.762C725.401 219.386 725.76 220.04 726.206 220.532L729.17 217.846C729.172 217.848 729.159 217.835 729.134 217.799C729.109 217.764 729.077 217.715 729.037 217.649C728.958 217.516 728.865 217.338 728.763 217.112C728.558 216.66 728.343 216.074 728.147 215.392C727.751 214.022 727.465 212.384 727.448 210.843C727.43 209.261 727.697 208.016 728.182 207.231C728.577 206.591 729.182 206.122 730.445 206.122V202.122ZM725.708 218.909C725.101 223.207 725.096 227.774 725.618 231.326C725.877 233.086 726.282 234.724 726.887 235.981C727.418 237.085 728.504 238.686 730.445 238.686V234.686C731.01 234.686 730.917 235.132 730.491 234.247C730.138 233.513 729.808 232.327 729.576 230.745C729.116 227.614 729.108 223.433 729.668 219.469L725.708 218.909ZM731.716 238.23C732.621 237.485 733.368 236.602 733.983 235.634L730.608 233.487C730.188 234.149 729.711 234.699 729.174 235.141L731.716 238.23ZM730.336 234.962C732.951 247.734 741.732 255.369 752.893 257.903L753.778 254.002C744.006 251.784 736.526 245.254 734.255 234.16L730.336 234.962ZM751.342 255.79C751.257 256.836 751.213 257.908 751.213 259.001H755.213C755.213 258.016 755.252 257.051 755.329 256.114L751.342 255.79ZM751.213 259.001C751.213 260.413 751.286 261.791 751.427 263.122L755.405 262.702C755.279 261.512 755.213 260.274 755.213 259.001H751.213ZM753.112 260.935C727.647 264.852 707.971 284.77 707.971 309.077H711.971C711.971 287.094 729.839 268.562 753.72 264.889L753.112 260.935ZM707.971 309.077C707.971 336.258 732.538 357.922 762.36 357.922V353.922C734.315 353.922 711.971 333.64 711.971 309.077H707.971ZM762.36 357.922C792.182 357.922 816.749 336.258 816.749 309.077H812.749C812.749 333.64 790.405 353.922 762.36 353.922V357.922ZM816.749 309.077C816.749 284.59 796.783 264.56 771.043 260.851L770.473 264.81C794.616 268.289 812.749 286.933 812.749 309.077H816.749ZM772.748 263.036C772.882 261.732 772.953 260.382 772.953 259.001H768.953C768.953 260.246 768.889 261.459 768.769 262.625L772.748 263.036ZM772.953 259.001C772.953 257.84 772.903 256.701 772.807 255.594L768.822 255.938C768.908 256.931 768.953 257.954 768.953 259.001H772.953Z" fill="#40382B" mask="url(#path-11-inside-1)"/>
<path d="M813.717 310.03C815.859 322.109 810.232 333.292 800.39 341.519C790.543 349.748 776.57 354.922 762.337 354.922C733.879 354.922 711.027 334.679 710.971 309.947C714.082 293.182 717.078 282.968 720.226 277.031C721.798 274.068 723.369 272.244 724.942 271.189C726.491 270.15 728.111 269.808 729.898 269.937C731.717 270.07 733.707 270.691 735.953 271.603C737.338 272.166 738.765 272.814 740.282 273.503C741.243 273.94 742.242 274.394 743.289 274.853C748.619 277.188 754.886 279.503 762.337 279.503C768.956 279.503 774.816 276.988 779.968 274.444C780.839 274.013 781.685 273.585 782.509 273.167C784.153 272.334 785.716 271.542 787.24 270.858C789.518 269.835 791.595 269.108 793.528 268.895C795.432 268.685 797.19 268.974 798.875 269.995C800.581 271.029 802.291 272.863 803.99 275.884C807.402 281.95 810.613 292.524 813.717 310.03Z" fill="#E5E5E5" stroke="#40382B" stroke-width="2"/>
<ellipse cx="750.351" cy="211.448" rx="1.89077" ry="2.41599" transform="rotate(8 750.351 211.448)" fill="#40382B"/>
<path d="M739.73 207.909C743.749 205.298 753.28 201.906 757.756 204.743C758.657 205.314 759.162 208.46 758.166 208.079C750.615 205.196 748.642 206.524 740.025 210.307C739.02 210.747 738.532 208.687 739.73 207.909Z" fill="#40382B"/>
<ellipse rx="1.89077" ry="2.41599" transform="matrix(-0.992546 0.121869 0.121869 0.992546 772.057 211.372)" fill="#40382B"/>
<path d="M782.738 208.019C778.765 205.339 769.294 201.78 764.77 204.539C763.859 205.094 763.299 208.23 764.302 207.867C771.902 205.117 773.852 206.479 782.402 210.411C783.398 210.869 783.922 208.818 782.738 208.019Z" fill="#40382B"/>
<path d="M769.844 223.531C769.844 226.453 766.121 230.727 761.529 230.727C756.936 230.727 753.213 226.453 753.213 223.531C753.213 220.608 756.936 219.085 761.529 219.085C766.121 219.085 769.844 220.608 769.844 223.531Z" fill="#116979"/>
<path d="M755.787 235.727C758.17 235.727 759.36 237.223 761.801 237.366C764.572 237.528 765.431 235.727 768.268 235.727C770.394 235.727 774.491 235.451 773.6 237.775C771.669 242.811 767.077 245.696 761.801 245.696C756.524 245.696 751.932 242.811 750.001 237.775C749.11 235.451 753.661 235.727 755.787 235.727Z" fill="#116979"/>
<path d="M847.563 269.543L857.323 287.947L833.045 312.011L827.277 296.6L847.563 269.543Z" fill="#C4C4C4"/>
<path d="M888.964 216.571L903.118 231.856L885.824 261.342L876.296 247.926L888.964 216.571Z" fill="white"/>
<path d="M898.069 217.26L909.046 234.965L886.443 260.609L879.651 245.621L898.069 217.26Z" fill="#C4C4C4"/>
<path d="M881.91 118.866L902.141 113.898L919.545 143.319L903.192 145.147L881.91 118.866Z" fill="white"/>
<path d="M887.357 110.889L908.164 109.871L919.635 142.073L903.233 140.747L887.357 110.889Z" fill="#C4C4C4"/>
<path d="M794.76 26.9716L779.724 41.3898L749.942 24.6128L763.189 14.8526L794.76 26.9716Z" fill="white"/>
<path d="M794.005 36.6194L776.495 47.9037L750.46 25.7521L765.327 18.699L794.005 36.6194Z" fill="#C4C4C4"/>
<path d="M880.352 54.3398L865.167 68.6004L880.362 99.2206L890.802 86.5018L880.352 54.3398Z" fill="white"/>
<path d="M832.222 54.3398L829.395 74.9788L860.474 89.2125L860.583 72.7579L832.222 54.3398Z" fill="#C4C4C4"/>
<path d="M822.275 7.43051L809.797 24.1113L830.079 51.6277L838.152 37.2893L822.275 7.43051Z" fill="white"/>
<path d="M812.792 9.35553L803.725 28.1109L828.885 51.2518L834.073 35.6364L812.792 9.35553Z" fill="#C4C4C4"/>
<path d="M860.175 253.362L866.244 273.29L837.82 292.279L835.099 276.051L860.175 253.362Z" fill="#C4C4C4"/>
<path d="M901.822 166.577L921.129 174.401L917.999 208.441L903.675 200.344L901.822 166.577Z" fill="#C4C4C4"/>
<path d="M760.866 312.934C761.192 312.875 761.527 312.898 761.841 313.001L792.799 323.08C794.775 323.723 794.581 326.58 792.536 326.949L773.571 330.376C773.245 330.435 772.91 330.412 772.596 330.31L741.638 320.231C739.662 319.587 739.856 316.73 741.902 316.361L760.866 312.934Z" fill="#FDFBF6"/>
<path d="M768.564 295.495L785.375 307.799L774.024 340.043L762.112 328.691L768.564 295.495Z" fill="#C4C4C4"/>
<path d="M790.802 293.277L802.086 310.788L779.934 336.823L772.881 321.956L790.802 293.277Z" fill="#FDFBF6"/>
<path d="M738.628 319.017L770.471 329.392C771.191 329.626 771.623 330.361 771.479 331.104L765.143 363.701C764.971 364.586 764.063 365.12 763.206 364.841L731.363 354.467C730.642 354.232 730.21 353.498 730.355 352.754L736.691 320.157C736.863 319.272 737.771 318.738 738.628 319.017Z" fill="black" stroke="#40382B"/>
<path d="M772.704 330.17L793.782 325.754C794.482 325.607 795.105 326.221 794.969 326.923L788.692 359.216C788.615 359.611 788.309 359.922 787.915 360.004L766.837 364.421C766.137 364.568 765.513 363.953 765.65 363.251L771.927 330.958C772.004 330.563 772.31 330.253 772.704 330.17Z" fill="black" stroke="#40382B" stroke-width="2"/>
</g>
<defs>
<clipPath id="clip0">
<rect width="1519" height="700" fill="white"/>
</clipPath>
</defs>
</svg>
